<svg width="122" height="86" viewBox="0 0 122 86" fill="none" xmlns="http://www.w3.org/2000/svg">
<g clip-path="url(#clip0_6_3)">
<path d="M4.01591 68.9467C2.7939 68.9467 1.42567 68.8018 0 68.5394V49.2745C1.3382 49.0121 2.82263 48.8672 3.92844 48.8672C7.01348 48.8672 9.2251 50.3216 9.2251 53.9602C9.2251 56.288 8.23549 57.6262 6.98476 58.296V58.4409C8.70157 59.1681 9.74994 60.6525 9.74994 63.1266C9.74994 67.2887 7.1597 68.9467 4.01721 68.9467H4.01591ZM3.92844 50.2054C3.11377 50.2054 2.47404 50.2642 1.5719 50.4091V57.9174H4.3658C6.315 57.9174 7.59576 56.5491 7.59576 53.9602C7.59576 51.5162 6.315 50.2067 3.92844 50.2067V50.2054ZM4.3658 59.2268H1.5719V67.3749C2.1829 67.491 3.14379 67.6072 3.89971 67.6072C6.69362 67.6072 8.09057 66.1228 8.09057 63.1253C8.09057 60.6225 6.75237 59.2255 4.3658 59.2255V59.2268Z" fill="white"/>
<path d="M21.3316 68.6856H13.416V49.0722H15.0166V67.26H21.4478C21.4478 67.726 21.4191 68.2496 21.3316 68.6856Z" fill="white"/>
<path d="M32.7683 68.8306L31.0802 61.9633H25.6386L23.9505 68.8306C23.602 68.8306 22.816 68.6856 22.4948 68.5394C23.9793 62.2832 25.6961 55.5608 27.5004 49.0709H29.2759C31.0802 55.5608 32.797 62.2832 34.2815 68.5394C33.9616 68.6843 33.2044 68.8306 32.7683 68.8306ZM28.6362 52.1272C28.52 51.6324 28.4613 51.1376 28.4325 50.7015H28.3163C28.2876 51.1376 28.2001 51.6324 28.084 52.1272L25.9885 60.6251H30.7316L28.6362 52.1272Z" fill="white"/>
<path d="M42.1971 68.9755C37.89 68.9755 35.8534 65.9205 35.8534 58.877C35.8534 51.3974 38.2974 48.7784 42.2558 48.7784C43.5653 48.7784 44.6998 49.0983 45.5733 49.7393C45.5445 50.1179 45.3696 50.7577 45.1947 51.2237C44.2638 50.554 43.4778 50.2341 42.2558 50.2341C38.9384 50.2341 37.5127 52.4745 37.5127 58.877C37.5127 64.6097 38.7935 67.5198 42.1984 67.5198C43.5079 67.5198 44.2938 67.1999 45.4871 66.269C45.662 66.7351 45.7782 67.1999 45.8944 67.7535C44.7299 68.6269 43.5953 68.9755 42.1984 68.9755H42.1971Z" fill="white"/>
<path d="M58.0283 68.8018L53.0228 58.5871L50.695 61.992V68.6856H49.0944V49.0722H50.695V59.7517H50.8112C51.4222 58.6171 52.2081 57.2776 52.9066 56.2306L57.7659 48.926C58.1145 48.926 58.9879 49.0422 59.3953 49.2171L53.9824 57.1614C55.9029 60.7987 57.4748 63.9713 59.6577 68.5695C59.3378 68.7144 58.4357 68.8018 58.0283 68.8018Z" fill="white"/>
<path d="M80.3208 68.7431L79.2724 52.7669C79.2437 52.3596 79.2437 51.8361 79.2437 51.1075H79.1275C79.0988 51.6898 79.0113 52.3008 78.8951 52.7669L75.2578 68.6856H73.4535L69.8163 52.7669C69.7001 52.3309 69.6126 51.6898 69.5839 51.1075H69.4677C69.4677 51.806 69.4677 52.3583 69.4389 52.7669L68.3919 68.7431C68.072 68.7431 67.3735 68.7144 66.9662 68.6269C67.3735 62.1957 67.7234 55.6483 68.3344 49.0709H70.4011L73.9222 64.4948C74.0685 65.1345 74.2134 65.833 74.3296 66.5902H74.4458C74.562 65.8343 74.7082 65.1358 74.8531 64.4948L78.3742 49.0709H80.4409C81.0519 55.6483 81.4018 62.1957 81.8091 68.6269C81.3731 68.7144 80.7033 68.7431 80.3247 68.7431H80.3208Z" fill="white"/>
<path d="M91.0303 68.9755C87.7129 68.9755 85.7924 67.6072 85.7924 62.6892V49.0696H87.393V62.5142C87.393 66.3852 88.5276 67.5485 91.0603 67.5485C93.7381 67.5485 94.8138 66.3839 94.8138 62.5142V49.0696H96.2983V62.6892C96.2983 67.5785 94.2028 68.9755 91.0303 68.9755Z" fill="white"/>
<path d="M104.009 68.9755C102.583 68.9755 101.215 68.7131 100.197 68.1021C100.225 67.666 100.4 66.9675 100.545 66.5889C101.594 67.1999 102.699 67.5198 104.009 67.5198C106.308 67.5198 107.501 66.239 107.501 63.8538C107.501 58.9945 100.139 59.3718 100.139 53.7552C100.139 50.6415 102.408 48.7784 105.202 48.7784C106.192 48.7784 107.443 48.9233 108.316 49.1858C108.316 49.4482 108.17 50.3203 108.025 50.7577C107.326 50.4665 106.104 50.2341 105.202 50.2341C102.903 50.2341 101.739 51.4274 101.739 53.7552C101.739 57.9748 109.101 57.6837 109.101 63.8538C109.101 66.6764 107.121 68.9755 104.008 68.9755H104.009Z" fill="white"/>
<path d="M121.296 68.6856H112.623V49.0722H121.062C121.062 49.567 121.033 50.003 120.946 50.4978H114.224V57.5988H119.345V59.0245H114.224V67.26H121.412C121.412 67.726 121.383 68.2496 121.296 68.6856Z" fill="white"/>
<path fill-rule="evenodd" clip-rule="evenodd" d="M63.0156 29.2929C63.0156 29.0409 63.2192 28.8386 63.4712 28.8386C63.7232 28.8386 63.9256 29.0422 63.9256 29.2929C63.9256 29.5436 63.7219 29.7472 63.4712 29.7472C63.2205 29.7472 63.0156 29.5449 63.0156 29.2929ZM60.7165 29.2929C60.7165 29.0409 60.9201 28.8386 61.1708 28.8386C61.4215 28.8386 61.6251 29.0422 61.6251 29.2929C61.6251 29.5436 61.4215 29.7472 61.1708 29.7472C60.9201 29.7472 60.7165 29.5449 60.7165 29.2929ZM58.4187 29.2929C58.4187 29.0409 58.6224 28.8386 58.873 28.8386C59.1237 28.8386 59.3274 29.0422 59.3274 29.2929C59.3274 29.5436 59.1237 29.7472 58.873 29.7472C58.6224 29.7472 58.4187 29.5449 58.4187 29.2929ZM56.5726 29.7472C56.322 29.7472 56.1183 29.5449 56.1183 29.2929C56.1183 29.0409 56.322 28.8386 56.5726 28.8386C56.8233 28.8386 57.0283 29.0422 57.0283 29.2929C57.0283 29.5436 56.8246 29.7472 56.5726 29.7472ZM76.4968 22.427C74.78 20.7924 73.4718 18.8145 72.6363 16.6551C72.2159 15.5662 71.9143 14.4304 71.7393 13.271C71.9639 13.6484 72.2146 14.0087 72.4913 14.3494C73.6481 15.7725 75.2448 16.8418 77.1039 17.3379C77.0856 19.0769 76.8767 20.7819 76.4968 22.4283V22.427ZM66.6803 38.2073C69.281 36.5649 71.5357 34.4669 73.3504 32.0398C74.9863 29.8517 76.2631 27.3933 77.1143 24.7613C79.1628 27.2876 79.2842 30.0305 78.2345 32.3753C77.6431 33.6979 76.6783 34.9055 75.4759 35.8873L75.4471 35.9121C74.2473 36.8848 72.8125 37.6315 71.2772 38.0441C69.8019 38.4397 68.2313 38.5258 66.6816 38.2073H66.6803ZM47.4076 16.6551C46.572 18.8145 45.2638 20.7924 43.547 22.427C43.1671 20.7806 42.9582 19.0756 42.9399 17.3366C44.7991 16.8405 46.3945 15.7712 47.5525 14.3481C47.8293 14.0087 48.0799 13.647 48.3045 13.2697C48.1296 14.4304 47.8293 15.5662 47.4076 16.6538V16.6551ZM46.6947 32.0385C48.5082 34.4655 50.7642 36.5636 53.3649 38.206C51.8152 38.5245 50.2433 38.4397 48.7693 38.0428C47.2339 37.6302 45.7991 36.8834 44.5993 35.9108L44.5706 35.886C43.3682 34.9042 42.4034 33.6953 41.8119 32.374C40.7623 30.0292 40.8837 27.2863 42.9321 24.76C43.782 27.392 45.0589 29.8504 46.696 32.0385H46.6947ZM60.0232 35.4356C61.1591 36.7894 62.4163 37.7791 63.731 38.4566C62.5521 39.0298 61.3131 39.5102 60.0232 39.8889C58.7333 39.5102 57.4944 39.0298 56.3154 38.4566C57.6301 37.7804 58.8887 36.7908 60.0245 35.4356H60.0232ZM59.5297 34.1026C58.1706 35.9056 56.5922 37.0754 54.9446 37.7334C52.0776 36.1014 49.6114 33.9015 47.6726 31.3087C45.9858 29.0514 44.6985 26.4964 43.8956 23.7547C45.9884 21.9126 47.5656 19.6174 48.5434 17.0924C49.5605 14.463 49.9286 11.5816 49.5526 8.69896C49.5448 6.35548 48.4794 4.13211 46.9663 2.52757C46.0759 1.58234 45.0236 0.846007 43.9361 0.417782C42.812 -0.023498 41.6435 -0.137082 40.5599 0.181475C39.488 0.497421 38.518 1.22854 37.7777 2.47404C37.2999 3.27827 37.061 4.18041 37.061 5.07733C37.061 5.97426 37.2921 6.84245 37.7543 7.63754L37.7777 7.68193C38.2451 8.46919 38.9084 9.09977 39.68 9.5293L39.7256 9.55672C40.5142 9.98494 41.4229 10.2043 42.3564 10.1677C43.2977 10.1455 44.1437 9.74864 44.7547 9.12588C45.3696 8.49791 45.7495 7.63754 45.7495 6.69362C45.7495 5.7497 45.3696 4.88933 44.7547 4.26136C44.1411 3.63469 43.2898 3.2378 42.3446 3.21821C42.0091 3.21169 41.731 3.47802 41.7245 3.81355C41.7179 4.14908 41.9843 4.42716 42.3198 4.43369C42.9321 4.44675 43.4857 4.70525 43.8865 5.11389C44.2834 5.51861 44.5288 6.07739 44.5288 6.69362C44.5288 7.30985 44.2834 7.86863 43.8865 8.27335C43.487 8.68199 42.9321 8.94049 42.3198 8.95355H42.3081C41.6004 8.98097 40.9098 8.81255 40.3066 8.48485L40.2648 8.46396C39.6813 8.13757 39.1799 7.65843 38.8248 7.06179L38.7974 7.02001C38.4527 6.42206 38.2791 5.751 38.2791 5.07733C38.2791 4.40366 38.4606 3.70258 38.8235 3.09419C39.3927 2.13851 40.116 1.58234 40.9007 1.35126C41.7101 1.11365 42.6096 1.20765 43.4909 1.55493C44.41 1.91657 45.3082 2.54846 46.0772 3.36444C47.3997 4.76792 48.3306 6.70276 48.3306 8.72769C48.3306 10.5516 47.6922 12.2501 46.6086 13.5831C45.5237 14.9174 43.9922 15.89 42.2075 16.2621C41.9086 16.3248 41.7062 16.5989 41.7245 16.8953C41.7075 19.1226 41.9856 21.2976 42.5274 23.3774C39.629 26.4638 39.3836 29.9274 40.7009 32.8728C41.3733 34.3755 42.4569 35.7372 43.7977 36.8325L43.8329 36.8586C45.1646 37.9383 46.7535 38.7674 48.4546 39.2243C50.507 39.7753 52.7212 39.7935 54.8506 39.0781C56.4094 39.9189 58.0766 40.6017 59.8326 41.1043L59.847 41.1082L59.8561 41.1109H59.8613L59.8718 41.1148H59.8757L59.8901 41.1187L59.9044 41.1213L59.9188 41.1239L59.9331 41.1265H59.9475L59.9619 41.1304H59.9762L59.9919 41.1331H60.0076H60.0219H60.0519L60.0676 41.1317H60.0833L60.0976 41.1291H60.1133L60.1277 41.1252L60.1433 41.1226L60.159 41.12L60.1694 41.1174H60.1734L60.1838 41.1135H60.189L60.1982 41.1096L60.2125 41.1056C61.9685 40.603 63.6344 39.9202 65.1946 39.0794C67.3239 39.7948 69.5395 39.7766 71.5905 39.2256C73.2903 38.7687 74.8805 37.941 76.2122 36.8599L76.2474 36.8338C77.5883 35.7385 78.6719 34.3768 79.3442 32.8741C80.6615 29.9287 80.4161 26.4664 77.5178 23.38C78.0583 21.3003 78.3377 19.1239 78.3207 16.8966C78.339 16.6002 78.1366 16.3261 77.8363 16.2634C76.0516 15.8913 74.5202 14.9187 73.4353 13.5844C72.3516 12.2514 71.7132 10.5529 71.7132 8.72899C71.7132 6.70407 72.6428 4.77053 73.9666 3.36574C74.7356 2.54977 75.6338 1.91787 76.5529 1.55623C77.4355 1.21026 78.3337 1.11495 79.1432 1.35256C79.9291 1.58365 80.6524 2.13982 81.2203 3.09549C81.5833 3.70519 81.7648 4.39191 81.7648 5.07864C81.7648 5.76537 81.582 6.45209 81.2203 7.06309C80.8652 7.65974 80.3639 8.13757 79.7803 8.46527L79.7385 8.48616C79.134 8.81385 78.4447 8.98227 77.7371 8.95485H77.7253C77.113 8.9418 76.5595 8.6833 76.1587 8.27335C75.7618 7.86863 75.5163 7.30985 75.5163 6.69362C75.5163 6.07739 75.7618 5.51861 76.1587 5.11389C76.5582 4.70525 77.113 4.44544 77.7253 4.43369C78.0609 4.42716 78.3272 4.14908 78.3207 3.81355C78.3142 3.47802 78.0361 3.21169 77.7005 3.21821C76.7553 3.2378 75.9041 3.63469 75.2905 4.26136C74.6755 4.88933 74.2956 5.7497 74.2956 6.69362C74.2956 7.63754 74.6755 8.49791 75.2905 9.12588C75.9015 9.74994 76.7488 10.1455 77.6888 10.169C78.6236 10.2056 79.5309 9.98494 80.3195 9.55802L80.3652 9.53061C81.1368 9.10108 81.8 8.47049 82.2674 7.68324C82.7439 6.88032 82.9841 5.97948 82.9841 5.07995C82.9841 4.18041 82.7439 3.27957 82.2674 2.47665C81.5271 1.23245 80.5571 0.501338 79.4852 0.185392C78.4016 -0.133165 77.2331 -0.0195813 76.1091 0.421699C75.0215 0.849923 73.9692 1.58626 73.0788 2.53149C71.5657 4.13602 70.5004 6.35809 70.4925 8.70288C70.1165 11.5869 70.4847 14.4682 71.5017 17.0963C72.4796 19.6226 74.0567 21.9178 76.1495 23.7586C75.3466 26.5003 74.0593 29.0553 72.3725 31.3126C70.4351 33.9055 67.9676 36.104 65.1006 37.7373C63.4529 37.0793 61.8745 35.9095 60.5154 34.1065L60.5063 34.0948L60.4971 34.083L60.488 34.0713L60.4776 34.0608L60.4684 34.0491L60.458 34.0386L60.4475 34.0282L60.4358 34.0177L60.4253 34.0073L60.4136 33.9968L60.4018 33.9877L60.3901 33.9786L60.3809 33.972L60.377 33.9694L60.3679 33.9629L60.364 33.9603L60.3561 33.9551L60.3509 33.9525L60.3431 33.9472L60.3366 33.9446L60.33 33.9407L60.3235 33.9368L60.317 33.9329L60.3104 33.929L60.3039 33.9263L60.2974 33.9224L60.2909 33.9198L60.283 33.9159L60.2778 33.9133L60.27 33.9094H60.2648L60.2556 33.9042L60.2504 33.9015L60.2413 33.8989H60.236L60.2269 33.8937H60.223L60.2138 33.8885H60.2099L60.1995 33.8846H60.1956L60.1851 33.8807H60.1812L60.1708 33.8767H60.1668L60.1564 33.8728H60.1525L60.1381 33.8702L60.1277 33.8676H60.1238L60.1094 33.865H60.095L60.0807 33.8611H60.0663L60.0519 33.8585H60.0376H60.0232H59.9945H59.9801H59.9658L59.9514 33.8611H59.9371L59.9266 33.865H59.9227L59.9123 33.8676L59.8979 33.8702H59.894L59.8835 33.8741H59.8796L59.8692 33.878H59.8653L59.8548 33.882H59.8509L59.8404 33.8859H59.8365L59.8274 33.8911H59.8235L59.8143 33.8963H59.8091L59.8 33.9015L59.7948 33.9042L59.7856 33.9081H59.7804L59.7726 33.9133L59.7673 33.9159L59.7595 33.9198L59.753 33.9224L59.7464 33.9263L59.7399 33.929L59.7334 33.9329L59.7269 33.9368L59.7203 33.9407L59.7138 33.9446L59.7073 33.9472L59.6994 33.9525L59.6942 33.9551L59.6864 33.9603L59.6825 33.9629L59.6733 33.9694L59.6694 33.972L59.6577 33.9812L59.6459 33.9903L59.6342 33.9995L59.6237 34.0099L59.612 34.0203L59.6015 34.0308L59.5911 34.0412L59.5806 34.053L59.5702 34.0634L59.5611 34.0752L59.5506 34.0869L59.5415 34.0987L59.5349 34.1078L59.5297 34.1026Z" fill="white"/>
<path d="M42.6775 72.8569C42.6514 73.0266 42.4047 73.3778 42.2872 73.481C42.2349 73.5071 42.1436 73.5854 42.0913 73.6246C42.0522 73.6638 41.9999 73.6899 41.9738 73.6768C41.9477 73.6768 41.9347 73.6768 41.9477 73.716C41.9608 73.7551 41.9477 73.7682 41.8302 73.7813C41.8172 73.7813 41.7519 73.8204 41.7127 73.8596C41.6735 73.8988 41.6213 73.9249 41.5952 73.9118C41.5822 73.9118 41.5691 73.9118 41.5691 73.9249C41.5691 73.9771 41.2049 74.1586 41.1004 74.1586C41.0612 74.1716 41.0221 74.1847 41.0351 74.1977C41.0351 74.2369 40.7753 74.3283 40.7231 74.3022C40.7057 74.2935 40.7057 74.2978 40.7231 74.3152C40.7405 74.3326 40.7275 74.3413 40.6839 74.3413C40.6578 74.3283 40.6317 74.3283 40.6448 74.3544C40.6578 74.3675 40.5925 74.4066 40.5012 74.4458C40.4228 74.4719 40.3314 74.5111 40.3053 74.5502C40.2662 74.5633 40.24 74.5633 40.24 74.5372C40.24 74.498 40.2139 74.5111 40.1487 74.5502C40.0703 74.5763 40.0181 74.5894 39.992 74.5763C39.9659 74.5763 39.9528 74.5763 39.9789 74.5894C39.992 74.6286 39.8875 74.6808 39.8223 74.6808C39.8092 74.6808 39.7178 74.6938 39.6264 74.72C39.5481 74.7461 39.4698 74.7591 39.4698 74.7461C39.4698 74.733 39.4567 74.7461 39.4436 74.7591C39.4306 74.7852 39.3653 74.8113 39.3 74.8113C39.2348 74.8244 39.1695 74.8375 39.1564 74.8505C39.1434 74.8636 39.0911 74.8897 39.052 74.8897C38.9998 74.8897 38.9475 74.9158 38.9084 74.9288C38.8823 74.9419 38.8431 74.9419 38.817 74.9288C38.8039 74.9158 38.7778 74.9288 38.7778 74.9419C38.7648 74.968 38.6995 74.9811 38.6081 74.9941C38.5298 74.9941 38.4775 75.0072 38.4906 75.0202C38.5036 75.0463 38.4645 75.0463 38.2569 75.0594C38.2047 75.0594 38.1786 75.0855 38.1786 75.0986C38.2047 75.1377 38.0088 75.1638 37.9579 75.1377C37.9405 75.129 37.9362 75.1334 37.9449 75.1508C37.9579 75.1769 37.9579 75.19 37.9318 75.19C37.9057 75.19 37.8274 75.203 37.749 75.2161C37.6838 75.2422 37.5663 75.2683 37.5153 75.2552C37.4644 75.2422 37.4239 75.2552 37.437 75.2683C37.4501 75.2944 37.0466 75.3727 36.9814 75.3466C36.9683 75.3336 36.9552 75.3336 36.9683 75.3597C37.0075 75.4119 36.9291 75.425 36.8116 75.3988C36.7464 75.3727 36.7333 75.3727 36.7464 75.4119C36.7594 75.425 36.7464 75.438 36.7072 75.425C36.6811 75.4119 36.655 75.4119 36.6419 75.425C36.6289 75.438 36.5505 75.4641 36.4461 75.4772C36.3547 75.4902 36.2502 75.5163 36.2254 75.5163C36.1863 75.5294 36.0427 75.5425 35.9265 75.5686C35.8103 75.5947 35.6536 75.6338 35.5883 75.6469C35.51 75.66 35.4447 75.673 35.4055 75.6861C35.3925 75.6861 35.3142 75.7122 35.2228 75.7122C35.1444 75.7252 35.04 75.7383 35.0139 75.7513C34.818 75.8036 34.5452 75.8297 34.506 75.7905C34.4668 75.7644 34.4538 75.7644 34.4668 75.7905C34.4668 75.8166 34.4538 75.8427 34.4277 75.8427C33.9459 75.9341 33.6339 75.9733 33.5947 75.9602C33.5686 75.9472 33.5295 75.9472 33.5164 75.9602C33.5033 75.9864 33.425 75.9994 33.3336 76.0125C33.2422 76.0255 33.1247 76.0516 33.0608 76.0647C32.9955 76.0777 32.878 76.0908 32.814 76.0908C32.7357 76.0908 32.6704 76.1039 32.6704 76.1169C32.6704 76.13 32.6443 76.13 32.6051 76.1169C32.5659 76.1169 32.5398 76.1169 32.5398 76.13C32.5398 76.143 32.5007 76.1691 32.4615 76.1691C32.4223 76.1691 32.2657 76.1952 32.1103 76.2083C31.9797 76.2344 31.7983 76.2605 31.7461 76.2605C31.6155 76.2866 31.4601 76.3127 31.3426 76.3388C31.2643 76.3519 30.9914 76.378 30.8217 76.3911C30.7825 76.4041 30.7303 76.4172 30.7173 76.4433C30.7042 76.4564 30.665 76.4564 30.6259 76.4302C30.5867 76.4041 30.5606 76.3911 30.5606 76.4041C30.5737 76.4694 30.5345 76.4825 30.4692 76.4433C30.417 76.4302 30.4039 76.4302 30.417 76.4433C30.43 76.4694 30.4039 76.4955 30.3256 76.4955C30.1428 76.5086 30.1167 76.5086 30.0788 76.5347C30.0527 76.5477 30.0005 76.5477 29.9875 76.5347C29.9613 76.5216 29.883 76.5608 29.8177 76.6C29.7655 76.6522 29.6872 76.7044 29.6611 76.7044C29.648 76.7044 29.635 76.7175 29.648 76.7305C29.648 76.7436 29.6088 76.8089 29.5436 76.8741C29.4783 76.9394 29.4261 76.9916 29.4261 76.9916C29.4391 77.0047 29.8164 77.0439 30.1546 77.07C30.4013 77.083 31.1311 77.1744 31.3518 77.2266C32.25 77.4225 32.8741 77.6953 33.2005 78.0335C33.3963 78.2293 33.5908 78.6197 33.7083 78.997C33.865 79.5048 33.7344 79.8038 33.1091 80.3378C32.8754 80.5584 32.8884 80.5584 32.8231 80.5075C32.797 80.4683 32.7709 80.4553 32.797 80.4945C32.8231 80.5467 32.784 80.6511 32.7318 80.6381C32.6926 80.625 32.6534 80.6381 32.6404 80.6772C32.6143 80.7164 32.5751 80.7425 32.562 80.7295C32.549 80.7164 32.5359 80.7164 32.5359 80.7425C32.5359 80.7817 32.3662 80.847 32.3153 80.8208C32.3022 80.8078 32.2892 80.8208 32.3022 80.847C32.3283 80.8731 32.2369 80.9253 32.0424 81.0297C31.8857 81.095 31.7696 81.1603 31.7826 81.1733C31.7957 81.1864 31.7173 81.1995 31.575 81.2125C31.5489 81.2125 31.5228 81.2256 31.5359 81.2517C31.5489 81.2647 31.5359 81.2647 31.4967 81.2517C31.4575 81.2386 31.4445 81.2386 31.4575 81.2517C31.4836 81.2778 31.3139 81.3822 31.2617 81.3561C31.2356 81.3431 31.2095 81.3561 31.1964 81.3692C31.1834 81.4345 30.9105 81.4997 30.8844 81.4606C30.8713 81.4345 30.8583 81.4475 30.8583 81.4736C30.8583 81.5128 30.8322 81.5389 30.806 81.5389C30.7408 81.552 30.6885 81.5781 30.481 81.6564C30.4287 81.6695 30.3896 81.6825 30.3635 81.6695C30.3504 81.6564 30.3373 81.6695 30.3373 81.6825C30.3373 81.7086 30.3112 81.7347 30.2851 81.7086C30.259 81.6956 30.2329 81.6956 30.2329 81.7347C30.2329 81.7739 30.1285 81.7608 30.0762 81.7086C30.0371 81.6825 30.0371 81.6956 30.0501 81.7478C30.0762 81.8 30.0371 81.8131 29.8804 81.8131C29.8543 81.8131 29.8412 81.8131 29.8412 81.8392C29.8412 81.8522 29.8151 81.8653 29.789 81.8653C29.776 81.8653 29.6976 81.8784 29.6323 81.8914C29.5671 81.9045 29.4757 81.9175 29.4365 81.9175C29.3973 81.9306 29.319 81.9436 29.2798 81.9567C29.2407 81.9828 29.1623 81.9959 29.1232 81.9828C29.084 81.9828 29.0448 81.9959 29.0448 82.0089C29.0187 82.0481 28.8111 82.0742 28.6023 82.0872C28.537 82.0872 28.4848 82.1134 28.4848 82.1264C28.4848 82.1525 28.4586 82.1525 28.4325 82.1395C28.4064 82.1264 28.3673 82.1395 28.3673 82.1525C28.3673 82.1786 28.3542 82.1917 28.315 82.1786C28.302 82.1656 28.2367 82.1656 28.1845 82.1917C28.1192 82.2178 28.08 82.2178 28.067 82.1917C28.0539 82.1525 28.0409 82.1525 28.0278 82.1786C28.0278 82.2047 27.9625 82.2309 27.8711 82.2439C27.7798 82.2439 27.6636 82.257 27.5852 82.27C27.5069 82.2831 27.4024 82.2961 27.3646 82.3092C27.3124 82.3092 27.221 82.3222 27.1949 82.3353C27.1557 82.3484 27.0513 82.3614 26.9481 82.3745C26.8437 82.3745 26.7144 82.3875 26.6883 82.4006C26.61 82.4267 26.2588 82.4528 26.0512 82.4789C25.9729 82.4789 25.8945 82.492 25.8815 82.505C25.8554 82.5181 25.8292 82.505 25.8292 82.492C25.8292 82.4528 25.8162 82.4528 25.7901 82.492C25.7248 82.5442 25.6334 82.5442 25.6595 82.4789C25.6856 82.4615 25.6813 82.4615 25.6465 82.4789C25.6204 82.505 25.4506 82.5311 25.2692 82.5442C24.9049 82.5572 24.8266 82.5834 24.8266 82.6356C24.8266 82.6878 24.5668 83.0521 24.5015 83.1043C24.4754 83.1304 24.4623 83.1434 24.4754 83.1434C24.5015 83.1434 24.4754 83.2087 24.4362 83.2609C24.397 83.3132 24.384 83.3654 24.384 83.3784C24.397 83.3915 24.384 83.4046 24.3579 83.4176C24.3187 83.4307 24.3057 83.4568 24.3187 83.4698C24.3187 83.4829 24.3057 83.509 24.2795 83.509C24.2534 83.5221 24.2404 83.5482 24.2534 83.5743C24.2534 83.5873 24.2534 83.6134 24.2143 83.6265C24.1882 83.6396 24.1751 83.6526 24.1882 83.6787C24.1882 83.6918 24.1751 83.7832 24.1229 83.8354C24.0968 83.8876 24.0707 83.9268 24.0707 83.9268C24.0837 83.9268 24.0445 83.9921 24.0054 84.0834C23.914 84.2271 23.8226 84.5783 23.8487 84.6044C23.8618 84.6174 23.914 84.6044 23.9662 84.5783C24.0315 84.5521 24.0707 84.5521 24.0968 84.5783C24.1229 84.6044 24.1098 84.6305 24.0054 84.6958C23.8618 84.7871 23.7847 84.7741 23.7195 84.6696V84.6827C23.6542 84.5783 23.6672 84.3837 23.7456 84.0834C23.8108 83.9137 24.1359 83.1069 24.2534 82.8601C24.3709 82.6003 24.3579 82.5612 24.1882 82.5873C24.1229 82.6003 24.0968 82.5873 24.0968 82.5612C24.0968 82.522 24.0837 82.522 24.0445 82.5612C23.9923 82.6134 23.8357 82.6134 23.8618 82.5612C23.8879 82.522 23.8748 82.522 23.8487 82.5612C23.8226 82.5742 23.7443 82.6003 23.7051 82.6003C23.6529 82.6003 23.6398 82.5873 23.6529 82.5612C23.6616 82.5351 23.6529 82.5351 23.6268 82.5612C23.5615 82.6003 22.5079 82.5873 22.1684 82.522C22.0509 82.5089 21.8695 82.4828 21.765 82.4828C21.5823 82.4698 21.2702 82.4176 21.0496 82.3653C20.9843 82.3392 20.8668 82.3262 20.7767 82.3131C20.6984 82.3 20.6331 82.2739 20.6331 82.2609C20.6331 82.2609 20.5939 82.2348 20.5417 82.2348C20.385 82.2217 19.9046 82.052 19.6827 81.9358C19.539 81.8575 19.4868 81.8052 19.4359 81.676C19.3706 81.4932 19.3837 81.4423 19.5273 81.3379C19.6187 81.2726 20.1135 81.1303 20.4908 81.065C20.7245 80.9997 20.7637 81.0128 20.7637 81.078C20.7637 81.1172 20.53 81.2217 20.5039 81.1955C20.4777 81.1825 20.4516 81.1825 20.4516 81.2086C20.4386 81.2217 20.3341 81.2739 20.1918 81.313C20.0613 81.3522 19.9581 81.3914 19.9451 81.4044C19.932 81.4044 19.8929 81.4175 19.8537 81.4305C19.8145 81.4436 19.7754 81.4697 19.7754 81.4828C19.7754 81.4958 19.7623 81.5089 19.7231 81.5089C19.6709 81.5089 19.6317 81.535 19.6056 81.5872C19.5621 81.6307 19.5839 81.6699 19.6709 81.7047C20.2049 81.9254 21.0378 82.0167 22.235 82.0037H23.1594C23.7717 81.9384 24.773 81.847 24.773 81.834C24.773 81.834 24.7992 81.7817 24.8253 81.7165C24.8514 81.6512 24.9297 81.5089 24.9819 81.4044C25.0342 81.313 25.0733 81.2217 25.0864 81.2086C25.0994 81.1955 25.1517 81.1172 25.2039 81.0389C25.3344 80.7791 25.9454 79.8678 26.0238 79.8025C26.0499 79.7764 26.076 79.7503 26.0629 79.7503C26.0238 79.7503 26.388 79.2294 26.5186 79.1001C26.5447 79.074 26.5577 79.0479 26.5447 79.0479C26.5186 79.0479 26.7275 78.775 26.8176 78.6967C26.8567 78.6575 26.8698 78.6314 26.8567 78.6184C26.8437 78.6053 26.8437 78.5922 26.8698 78.5922C26.8828 78.5922 26.9481 78.54 26.9873 78.4617C27.0395 78.3964 27.1309 78.2659 27.1949 78.2019C27.2601 78.1236 27.3385 78.0583 27.3385 78.0452C27.3385 78.0191 27.221 78.0191 27.0917 78.0322C26.9612 78.0322 26.8058 78.0452 26.7275 78.0452C26.6491 78.0583 26.5969 78.0713 26.5969 78.0844C26.5969 78.0974 26.5708 78.0974 26.5316 78.0713C26.4925 78.0583 26.4664 78.0452 26.4664 78.0713C26.4664 78.0844 26.375 78.0974 26.2836 78.0974C26.1661 78.1105 26.076 78.1236 26.0499 78.1627C25.9977 78.228 25.9454 78.2149 25.9063 78.1236C25.8932 78.0713 25.8671 78.0452 25.8279 78.0452C25.7888 78.0452 25.5942 77.5896 25.5551 77.4199C25.542 77.3285 25.529 77.3024 25.4767 77.3154C25.3984 77.3415 25.1908 77.3807 24.9167 77.4199C24.8383 77.4329 24.7469 77.459 24.7078 77.459C24.6817 77.4721 24.6164 77.4851 24.5642 77.4851C24.5119 77.4982 24.4205 77.5243 24.3305 77.5374C24.0445 77.6026 23.9793 77.6026 23.9923 77.5635C24.0054 77.5243 24.3957 77.4068 24.9167 77.3037C25.0994 77.2645 25.3462 77.1992 25.4637 77.1731C25.5681 77.147 26.0499 77.0556 26.4925 76.9512C26.9481 76.8598 27.4168 76.7553 27.5461 76.7305C27.6766 76.6913 28.0017 76.6261 28.2223 76.5739L28.6388 76.4825L28.9117 76.1835C29.3282 75.6887 29.9653 74.9993 30.6429 74.3348C31.2291 73.7486 31.2421 73.7369 31.1899 73.6585C31.1768 73.6063 31.1377 73.541 31.1246 73.528C31.0985 73.5149 31.0724 73.4758 31.0724 73.4366C31.0593 73.3974 31.0463 73.3452 31.0332 73.306C30.994 73.2277 31.0593 73.1755 31.515 72.8634C31.8401 72.6546 32.1142 72.4992 32.8688 72.0958L33.1156 71.9652L33.2592 72.0305C33.3767 72.0958 33.7148 72.46 33.8062 72.6036C33.8454 72.695 33.8454 72.7081 33.7279 72.8373C33.6626 72.9157 33.6104 72.9809 33.5712 72.9679C33.5451 72.9548 33.5321 72.9679 33.5451 72.9809C33.5712 73.0071 33.5582 73.0201 33.519 73.0071C33.4798 72.994 33.4668 72.994 33.4798 73.0332C33.506 73.0723 33.3101 73.293 33.2592 73.293C33.2331 73.293 33.1025 73.3974 32.9472 73.5528C32.8036 73.6964 32.6221 73.8779 32.5438 73.9431C32.4785 74.0215 32.4132 74.0606 32.3871 74.0476C32.3697 74.0389 32.3653 74.0432 32.374 74.0606C32.4001 74.1129 32.2565 74.2304 32.2043 74.2173C32.1782 74.2043 32.1782 74.2173 32.1913 74.2173C32.2304 74.2565 32.1129 74.374 32.0476 74.374C32.0215 74.374 31.9954 74.387 32.0085 74.4001C32.0215 74.4001 31.9824 74.4654 31.9171 74.5176C31.8649 74.5829 31.8257 74.6481 31.8257 74.6612C31.8257 74.6873 31.8126 74.6873 31.7996 74.6873C31.7735 74.6612 31.7474 74.6873 31.5137 74.8949C31.4353 74.9732 31.3701 75.0516 31.3701 75.0646C31.3701 75.1038 31.357 75.1038 31.3309 75.0777C31.3178 75.0646 31.3048 75.0777 31.3048 75.1168C31.3048 75.1299 31.2787 75.143 31.2525 75.1299C31.2134 75.1168 31.2003 75.1299 31.2134 75.143C31.2525 75.1952 30.8883 75.5203 30.8361 75.4942C30.8187 75.4854 30.8143 75.4898 30.823 75.5072C30.8361 75.5333 30.823 75.5594 30.7708 75.5855C30.7316 75.6117 30.7055 75.6378 30.7316 75.6378C30.7708 75.6378 30.6402 75.7814 30.588 75.7814C30.5619 75.7814 30.5489 75.7944 30.5619 75.8075C30.5619 75.8205 30.4966 75.8858 30.4183 75.9642C30.353 76.0425 30.3008 76.0947 30.3008 76.1078C30.3008 76.1078 30.3661 76.0947 30.4314 76.0817C30.5619 76.0555 31.5111 75.8349 31.6808 75.7957C31.733 75.7827 31.8374 75.7696 31.9406 75.7435C32.032 75.7305 32.2787 75.6782 32.4484 75.613C32.6312 75.5607 32.9824 75.4693 33.2031 75.4171C33.4498 75.3649 33.9446 75.2474 34.3089 75.1704C34.6731 75.0659 35.0243 74.9876 35.0765 74.9745C35.1288 74.9745 35.181 74.9484 35.194 74.9484C35.2071 74.9354 35.2724 74.9223 35.3377 74.9093C35.416 74.8962 35.4813 74.8832 35.4943 74.8832C35.5204 74.8832 35.5596 74.857 35.5727 74.844C35.5988 74.8309 35.6249 74.8309 35.6249 74.844C35.6249 74.857 35.651 74.844 35.6902 74.8309C35.7163 74.8048 35.7815 74.7918 35.8207 74.7787C35.8729 74.7787 36.1327 74.7134 36.3808 74.6351C36.6276 74.5698 36.8495 74.4915 36.8756 74.4915C36.9017 74.4915 36.9539 74.4784 36.9801 74.4654C37.0062 74.4523 37.2529 74.387 37.501 74.3218C37.9697 74.1912 38.1903 74.139 38.4384 74.075C38.5167 74.0489 38.595 74.0228 38.6211 74.0228C38.6603 74.0228 38.7125 73.9836 38.7386 73.9706C38.8823 73.9183 39.1682 73.827 39.1682 73.84C39.1682 73.8531 39.2073 73.84 39.2335 73.8269C39.2596 73.8139 39.3771 73.7617 39.5063 73.7225C40.0272 73.5397 40.7688 73.2407 41.12 73.0593C41.6409 72.7864 42.1866 72.3699 42.1866 72.2524C42.1866 72.2263 41.9007 72.0827 41.432 71.8751C41.3667 71.8229 41.0808 71.7446 40.6252 71.6414C40.5207 71.6153 40.4045 71.5762 40.3784 71.5631C40.3523 71.5631 40.3001 71.537 40.274 71.537C39.7792 71.4325 39.7661 71.4326 39.7922 71.3673C39.7922 71.3281 39.7922 71.3151 39.7531 71.3281C39.7139 71.3412 39.7008 71.3542 39.7139 71.3673C39.74 71.3934 39.3496 71.3542 39.2974 71.3281C39.2844 71.3151 39.0376 71.2759 38.7635 71.2367C38.4775 71.2106 38.1133 71.1714 37.9044 71.1584C37.5793 71.1192 37.202 71.1062 36.8377 71.08C36.7464 71.08 36.668 71.067 36.655 71.0539C36.6419 71.0278 36.6158 71.0409 36.5897 71.0539C36.5505 71.08 36.4591 71.0931 36.3299 71.08C36.2124 71.067 35.9004 71.0539 35.6536 71.0539C35.3024 71.0539 35.211 71.0409 35.2241 71.0148C35.2502 70.9887 35.2371 70.9887 35.198 71.0148C35.1327 71.067 34.5086 71.067 34.5347 71.0148C34.5434 70.9974 34.5347 70.9974 34.5086 71.0148C34.4695 71.0539 34.288 71.067 33.9485 71.08C33.6626 71.0931 33.3885 71.1062 33.3362 71.1062C33.2709 71.1192 33.2057 71.1062 33.2057 71.08C33.2057 71.0539 33.1926 71.067 33.1665 71.08C33.1404 71.1062 32.9459 71.1323 32.7109 71.1323C32.4772 71.1453 32.2683 71.1584 32.2552 71.1714C32.2422 71.1845 32.1508 71.1845 32.0986 71.1845C32.0202 71.1845 31.9419 71.1845 31.9288 71.1976C31.9158 71.2106 31.8766 71.2106 31.8374 71.1845C31.7983 71.1584 31.7852 71.1584 31.7983 71.1845C31.8244 71.2237 31.7983 71.2237 31.7199 71.2106C31.6677 71.2106 31.6024 71.2106 31.6024 71.2237C31.6024 71.2367 31.5633 71.2498 31.5111 71.2498C31.4588 71.2498 31.2904 71.2628 31.1468 71.2759C30.9901 71.2889 30.8217 71.315 30.7825 71.315C30.7303 71.315 30.6781 71.3281 30.6781 71.3412C30.665 71.3673 30.2225 71.4064 29.9496 71.4195C29.8582 71.4195 29.7929 71.4325 29.7929 71.4456C29.7929 71.4587 29.7407 71.4717 29.6624 71.4717C29.5971 71.4587 29.5188 71.4717 29.4927 71.4978C29.4665 71.5109 29.3752 71.537 29.3229 71.537C29.2707 71.55 29.1663 71.5631 29.1023 71.5762C29.037 71.5762 28.9065 71.5892 28.8425 71.6023C28.7641 71.6153 28.6989 71.6284 28.6858 71.6414C28.6858 71.6545 28.6466 71.6414 28.6205 71.6153C28.5814 71.5762 28.5683 71.5762 28.5944 71.6153C28.6075 71.6414 28.5944 71.6545 28.5553 71.6675H28.4508C28.2041 71.7328 27.956 71.7589 27.9168 71.7459C27.8907 71.7459 27.8254 71.7459 27.8124 71.7589C27.7732 71.7981 27.0839 71.9548 27.0447 71.9287C27.0186 71.9156 27.0056 71.9287 26.9925 71.9417C26.9794 71.9548 26.9011 71.9809 26.8097 71.9939C26.7053 72.007 26.5499 72.0331 26.4585 72.0592C26.3541 72.0853 26.2379 72.1114 26.1726 72.1245C26.1204 72.1376 26.0159 72.1506 25.9259 72.1767C25.8084 72.1898 25.7183 72.2028 25.7183 72.1898C25.6922 72.1898 25.666 72.1898 25.666 72.2159C25.666 72.242 25.4833 72.2812 25.3801 72.2812C25.3671 72.2812 25.3279 72.3073 25.2887 72.3203C25.2626 72.3464 25.1712 72.3595 25.0799 72.3987C24.8971 72.4248 24.8592 72.4378 24.5589 72.5162C24.4414 72.5423 24.3122 72.5814 24.273 72.5945C24.2338 72.5945 24.1555 72.6206 24.1033 72.6337C24.0641 72.6598 24.0119 72.6598 24.0119 72.6467C24.0119 72.6337 23.9858 72.6467 23.9727 72.6598C23.9336 72.6859 23.6346 72.7642 23.3604 72.8295C23.3474 72.8295 23.3343 72.8295 23.3343 72.8426C23.3343 72.8426 23.2951 72.8556 23.269 72.8556C23.2429 72.8556 23.1907 72.8687 23.1515 72.8817C23.1124 72.8948 22.9426 72.9601 22.7742 73.0123C22.6045 73.0776 22.4491 73.1167 22.41 73.1167C22.3839 73.1167 22.3055 73.1428 22.2533 73.1689C22.1097 73.2342 21.3942 73.481 21.3029 73.481C21.2767 73.481 21.2506 73.5071 21.2506 73.5201C21.2506 73.5332 21.2245 73.5463 21.1984 73.5332C21.1723 73.5201 21.1331 73.5201 21.1331 73.5463C21.1201 73.5593 21.094 73.5854 21.0809 73.5593C21.0548 73.5463 21.0417 73.5463 21.0417 73.5854C21.0417 73.6246 20.8211 73.7029 20.795 73.6507C20.795 73.6376 20.7689 73.6376 20.7428 73.6638C20.7297 73.7029 20.6775 73.729 20.6383 73.729C20.5992 73.7421 20.5208 73.7682 20.4555 73.8074C20.3772 73.8465 20.338 73.8596 20.325 73.8335C20.2989 73.7943 20.2858 73.8074 20.2597 73.8465C20.2467 73.8726 20.2205 73.8857 20.2075 73.8726C20.1814 73.8596 20.1683 73.8726 20.1683 73.8857C20.1683 73.9118 20.0378 73.964 19.9477 73.9771C19.9346 73.9771 19.9085 73.9901 19.8955 74.0032C19.8694 74.0424 19.5834 74.1338 19.5573 74.1207C19.5443 74.1076 19.5312 74.1207 19.5312 74.1468C19.5312 74.1599 19.5182 74.1729 19.479 74.1599C19.4529 74.1599 19.4398 74.1599 19.4398 74.1729C19.4398 74.186 19.244 74.2904 19.18 74.2904C19.18 74.2904 19.1408 74.3165 19.1017 74.3426C19.0625 74.3557 19.0103 74.3688 18.9711 74.3557C18.945 74.3557 18.9189 74.3688 18.932 74.3818C18.9581 74.421 18.6983 74.5124 18.6722 74.4732C18.646 74.4558 18.633 74.4602 18.633 74.4863C18.633 74.5385 18.5416 74.6038 18.5024 74.5776C18.4763 74.5646 18.4633 74.5907 18.4502 74.6168C18.4372 74.6429 18.398 74.656 18.3588 74.6429C18.3196 74.6429 18.2935 74.6429 18.3066 74.669C18.3196 74.6821 18.1238 74.7865 18.0076 74.8127C17.9815 74.8127 17.9423 74.8388 17.9162 74.8518C17.8771 74.904 17.7987 74.9171 17.7335 74.904C17.7073 74.904 17.7073 74.9171 17.7204 74.9301C17.7335 74.9563 17.7204 74.9693 17.6943 74.9693C17.6812 74.9693 17.6551 74.9824 17.6812 74.9824C17.6812 74.9954 17.7857 74.9693 17.9149 74.9301C18.0324 74.904 18.1617 74.8649 18.1878 74.8518C18.2139 74.8518 18.2661 74.8388 18.2922 74.8257C18.3183 74.8127 18.5259 74.7474 18.7609 74.6821C18.9816 74.6168 19.5155 74.4615 19.9451 74.344C20.3746 74.2134 20.765 74.0972 20.8433 74.0841C20.9608 74.045 20.9869 74.058 21.1814 74.1886C21.2989 74.2669 21.4282 74.3714 21.4674 74.4092C21.5326 74.5137 21.5718 74.8257 21.5196 74.8518C21.5065 74.8649 21.4935 74.891 21.5065 74.904C21.5196 74.9171 21.5065 74.9301 21.4674 74.9301C21.4151 74.9301 21.2206 74.9824 20.8172 75.126C20.5835 75.1913 20.231 75.2827 20.1017 75.3088C19.9581 75.3479 19.919 75.3479 19.9059 75.361C19.9059 75.361 19.8798 75.374 19.8667 75.374C19.8537 75.374 19.8276 75.3871 19.8015 75.4002C19.6709 75.4393 19.4764 75.4915 19.385 75.5046C19.3458 75.5177 19.2414 75.5438 19.1513 75.5699C19.073 75.6221 19.0207 75.6482 19.0207 75.6221C19.0207 75.596 18.9946 75.6221 18.9555 75.6482C18.9293 75.6743 18.9163 75.6874 18.9163 75.6743C18.9163 75.6613 18.8771 75.6743 18.8249 75.7004C18.7727 75.7265 18.7466 75.7527 18.7466 75.7396C18.7466 75.7265 18.6813 75.7527 18.5899 75.7788C18.5116 75.8049 18.4593 75.8179 18.4593 75.8049C18.4593 75.7918 18.4332 75.8049 18.4071 75.831C18.381 75.844 18.3549 75.8571 18.3549 75.844C18.3549 75.831 18.2635 75.8571 18.1473 75.8963C18.0168 75.9354 17.8875 75.9746 17.8353 75.9877C17.6917 76.0138 17.6395 76.0268 17.6277 76.0268C17.6277 76.0268 17.6016 76.0399 17.5885 76.0399C17.5494 76.0529 17.5363 76.0529 17.5363 76.0529C17.5363 76.066 17.4971 76.066 17.471 76.079C17.4449 76.079 17.3274 76.1182 17.2112 76.1443C16.8992 76.2488 16.5349 76.3402 16.4305 76.3519C16.3913 76.3519 16.3261 76.365 16.313 76.378C16.2999 76.3911 16.2216 76.4041 16.1563 76.4172C16.0911 76.4172 16.0258 76.4302 16.0127 76.4433C15.9866 76.4694 15.8952 76.4825 15.8051 76.4955C15.7268 76.5086 15.5845 76.5216 15.5192 76.5347C15.3234 76.5608 15.1158 76.4433 14.9069 76.2096C14.8025 76.0921 14.7372 75.9877 14.7502 75.9759C14.7633 75.9642 14.7502 75.9629 14.7372 75.9629C14.7111 75.9629 14.6719 75.9106 14.6458 75.8453C14.5936 75.7409 14.5936 75.7148 14.6327 75.6247C14.685 75.5072 14.8925 75.3388 15.0362 75.2605C15.0884 75.2343 15.1276 75.2082 15.1406 75.1952C15.1798 75.1299 15.843 74.7657 16.3639 74.4928C16.8848 74.246 17.4958 73.9719 17.9906 73.8034C18.082 73.7643 18.2505 73.7121 18.3549 73.6598C18.7844 73.4901 19.1748 73.3347 19.1748 73.3609C19.1748 73.3739 19.214 73.3609 19.2401 73.3478C19.2662 73.3086 19.6304 73.1781 19.774 73.152C19.8002 73.1389 19.8393 73.1259 19.8654 73.1259C19.9568 73.0867 20.2819 72.9953 20.3211 72.9823C20.3472 72.9823 20.3733 72.9692 20.3994 72.9561C20.4125 72.93 20.4777 72.917 20.53 72.8909C20.617 72.8735 20.6823 72.856 20.7258 72.8386C20.8955 72.7603 21.9622 72.4744 21.9883 72.4874C22.0144 72.5005 22.0274 72.4874 22.0274 72.4744C22.0274 72.4483 22.0536 72.4483 22.0797 72.4483C22.1058 72.4613 22.1319 72.4613 22.1449 72.4483C22.158 72.4222 22.2755 72.3699 22.4048 72.3438C22.5484 72.3177 22.7298 72.2655 22.8082 72.2394C22.8865 72.2133 22.9779 72.2002 22.991 72.2133C23.004 72.2133 23.0301 72.2133 23.0562 72.1872C23.0823 72.161 23.0954 72.1611 23.0954 72.1741C23.0954 72.1872 23.1215 72.1741 23.1607 72.161C23.1998 72.1349 23.551 72.0566 23.7978 72.0044C23.8239 72.0044 23.8761 71.9913 23.9022 71.9783C23.9806 71.9522 24.2534 71.8869 24.3709 71.8738C24.4232 71.8477 24.5145 71.8347 24.5668 71.8086C24.6451 71.7955 24.8135 71.7563 24.9832 71.7172C25.153 71.6911 25.3214 71.6519 25.3867 71.6388C25.4389 71.6127 25.5303 71.5997 25.5825 71.5866C25.6347 71.5866 25.8162 71.5474 25.9598 71.5083C26.1034 71.4822 26.3241 71.443 26.4285 71.4169C26.7144 71.3777 26.7927 71.3516 26.858 71.3385C26.8972 71.3255 26.9886 71.2994 27.0669 71.2863C27.1583 71.2733 27.392 71.2472 27.5878 71.1949C28.0174 71.1297 28.6936 71.0252 29.306 70.9482C29.5266 70.9221 29.7485 70.896 29.8008 70.8829C30.0345 70.8568 30.165 70.8307 30.5684 70.8046C30.7891 70.7654 31.0632 70.7393 31.2056 70.7132C31.3361 70.7001 31.5567 70.674 31.7134 70.674C31.844 70.661 32.2866 70.6218 32.6378 70.5957C33.002 70.5696 33.549 70.5435 33.8741 70.5304C34.5373 70.5043 37.1015 70.5043 37.3104 70.5304C37.3756 70.5304 37.6485 70.5435 37.8966 70.5565C38.1564 70.5696 38.4958 70.5957 38.6773 70.6218C38.847 70.6348 39.1199 70.661 39.3144 70.674C39.8092 70.7262 40.4985 70.8568 40.9542 70.973C41.9177 71.2197 42.2689 71.4678 42.4895 72.0396C42.594 72.3125 42.6723 72.729 42.6462 72.8856L42.6775 72.8569ZM29.1167 77.9447C28.6349 77.9447 28.4665 77.9708 28.4795 78.0361C28.4926 78.0491 28.4795 78.0622 28.4534 78.0622C28.4273 78.0622 28.4143 78.0753 28.4143 78.1144C28.4273 78.1405 28.3881 78.1666 28.3751 78.1666C28.349 78.1536 28.3229 78.1666 28.3359 78.1797C28.362 78.258 27.9325 78.7398 27.8019 78.7528C27.7758 78.7528 27.7628 78.7528 27.7889 78.7659C27.8411 78.792 27.8411 78.8573 27.7758 78.8573C27.7497 78.8573 27.7367 78.8834 27.7367 78.8964C27.7367 78.9226 27.7236 78.9356 27.6975 78.9356C27.6714 78.9356 27.6714 78.9487 27.6714 78.9617C27.6844 78.9878 27.6061 79.1053 27.5017 79.2085C27.3972 79.326 27.3058 79.4291 27.2928 79.4422C27.2928 79.4552 27.2275 79.5336 27.1361 79.638C26.8241 80.0153 26.7457 80.0806 26.7457 80.1067C26.7457 80.1198 26.7457 80.1459 26.7196 80.1589C26.7066 80.1589 26.6021 80.2895 26.4859 80.4318C26.3684 80.6015 26.2522 80.7438 26.2 80.7699C26.187 80.796 26.0956 80.9005 26.0172 81.0167C25.7313 81.394 25.6791 81.4332 25.6399 81.4723C25.6138 81.4984 25.6008 81.5376 25.6008 81.5768C25.6008 81.5898 25.5747 81.6159 25.5485 81.629C25.4702 81.6551 25.4833 81.7204 25.5485 81.6943C25.5877 81.6812 25.7183 81.6682 25.8345 81.6551C25.952 81.642 26.0943 81.629 26.1465 81.6159C26.1987 81.6029 26.3032 81.5898 26.3423 81.5898C26.4598 81.5768 27.1492 81.4332 27.5656 81.3561C28.1649 81.2386 28.503 81.1603 29.0226 81.018C29.1532 80.9658 29.2955 80.9266 29.3216 80.9266C29.5044 80.8874 30.5058 80.5623 30.9222 80.3796C31.7552 80.0545 32.562 79.5597 32.9654 79.1563C33.1221 78.9996 33.2775 78.7659 33.2514 78.7398C33.1861 78.6484 32.5881 78.4147 32.0542 78.258C31.7682 78.1927 30.7134 78.0243 30.3883 77.9982C29.7512 77.9591 29.5162 77.946 29.1127 77.946L29.1167 77.9447ZM27.3855 76.9694C27.3855 76.9955 27.503 77.0086 27.7758 76.9955C28.1531 76.9825 28.1923 76.9825 28.2706 76.9042C28.362 76.8258 28.3881 76.7736 28.3229 76.8128C28.3098 76.8258 28.2445 76.8389 28.1662 76.8519C28.1009 76.865 27.9194 76.8911 27.7367 76.9172C27.58 76.9433 27.4377 76.9564 27.4246 76.9564C27.3985 76.9433 27.3855 76.9433 27.3855 76.9694Z" fill="white"/>
<path d="M35.8312 80.7699H35.7659C35.5962 80.8613 35.3363 80.8352 35.0113 80.7046C34.6601 80.5349 34.5556 80.4448 34.5556 80.1837C34.5556 79.95 34.6601 79.7281 35.0113 79.2333C35.0765 79.1419 35.181 79.0126 35.181 78.9735C35.2071 78.9474 35.3115 78.8429 35.4016 78.7528C35.4669 78.6223 35.5713 78.5191 35.5975 78.493C35.728 78.3625 36.1837 77.8037 36.1837 77.8037C36.1837 77.7863 36.175 77.7776 36.1575 77.7776C36.1575 77.7776 36.0923 77.7384 36.0531 77.7123C36.027 77.6731 36.027 77.647 36.0531 77.6731C36.0792 77.6731 36.0792 77.6644 36.0531 77.647C36.027 77.6296 36.027 77.5948 36.0531 77.5426C36.0923 77.5165 36.1184 77.5165 36.1184 77.5165H36.1575C36.1575 77.4512 36.2881 77.412 36.4174 77.412C36.574 77.412 37.0936 77.7371 37.0936 77.8415C37.0936 77.9068 37.0284 78.0374 37.0022 78.0374C36.9761 78.0374 36.9761 78.0461 37.0022 78.0635C37.0284 78.1027 36.8978 78.2332 36.8325 78.2332C36.8151 78.2071 36.8151 78.2071 36.8325 78.2332C36.8586 78.2506 36.8586 78.2724 36.8325 78.2985C36.8064 78.3246 36.7672 78.3638 36.7672 78.3899C36.8064 78.3899 36.7672 78.3899 36.7411 78.3899C36.715 78.3899 36.702 78.4029 36.702 78.429C36.7411 78.429 36.6759 78.4552 36.6367 78.5204C36.5714 78.5857 36.5453 78.6249 36.5453 78.651H36.5061C36.48 78.651 36.4409 78.6902 36.48 78.6902C36.48 78.6902 36.4409 78.7554 36.3756 78.8207C36.2842 78.9513 36.1549 79.0414 36.0505 79.1719C36.0244 79.2372 35.9591 79.3025 35.9199 79.3416C35.8938 79.3677 35.8285 79.433 35.8285 79.4722C35.7894 79.5375 35.7241 79.5636 35.7241 79.6027C35.698 79.6289 35.6588 79.668 35.6588 79.6941C35.6588 79.7333 35.6327 79.7594 35.5935 79.7594C35.5935 79.7986 35.5283 79.8639 35.5283 79.8247C35.5109 79.8247 35.5022 79.8377 35.5022 79.8639C35.5022 79.9291 35.5022 79.9944 35.463 79.9944C35.463 79.9552 35.4369 79.9944 35.4369 80.0205C35.4369 80.0597 35.3977 80.125 35.3716 80.1903C35.3716 80.2555 35.3324 80.2816 35.3716 80.2816C35.3716 80.2816 35.5283 80.1511 35.7228 80.0218C36.0218 79.762 36.2829 79.6054 36.5427 79.4356C36.608 79.3704 36.6341 79.3442 36.6732 79.3442C36.7385 79.279 37.1289 79.0453 37.1289 79.0453H37.155C37.1942 79.0192 37.3247 78.9147 37.4801 78.8494C37.6498 78.7581 37.8052 78.6536 37.8443 78.6275C37.8704 78.5883 37.9357 78.5622 38.0402 78.4969C38.4566 78.2632 38.8209 78.0413 38.847 78.0021C38.8862 77.976 38.9123 77.9107 38.9514 77.8455C38.9776 77.8063 39.082 77.6757 39.1721 77.5857C39.3026 77.4551 39.3418 77.4551 39.4058 77.4551C39.5624 77.5204 39.8614 77.7802 39.9528 77.976C40.0181 78.1066 39.9528 78.198 39.8614 78.1327C39.8353 78.1153 39.8005 78.1153 39.757 78.1327C39.7309 78.1719 39.6917 78.198 39.6917 78.198C39.6917 78.198 39.6264 78.3024 39.5611 78.3677C39.535 78.4591 39.4698 78.4982 39.4698 78.4982C39.4306 78.4982 39.4306 78.5244 39.4698 78.5244C39.4698 78.5505 39.4567 78.5635 39.4306 78.5635C39.4306 78.5896 38.9619 79.279 38.988 79.2659C39.287 79.1745 39.9776 78.9669 40.5364 78.7842C40.6017 78.7581 41.3432 78.5374 41.6553 78.5113C41.9151 78.4852 41.0051 78.8103 40.7309 78.9539C40.6134 79.0061 40.3797 79.0844 40.2753 79.1497C39.7152 79.4095 38.5833 79.9174 38.4527 80.0218C38.4527 80.0218 38.4266 80.0871 38.3874 80.1524C38.3222 80.1916 38.2961 80.2568 38.2961 80.2568C38.2961 80.2829 38.2569 80.3221 38.2308 80.3482C38.1916 80.4135 38.1655 80.4135 38.1916 80.4135C38.2308 80.4135 38.0611 80.6093 37.9958 80.6733C37.9697 80.7125 37.9697 80.7386 37.9958 80.7386C37.9697 80.7778 37.7999 80.9984 37.7999 80.9984C37.8391 80.9984 37.7999 81.0376 37.7738 81.0637C37.7086 81.1028 37.7086 81.129 37.7086 81.1681L37.6694 81.1942C37.6433 81.2334 37.6041 81.2334 37.6041 81.2595C37.6041 81.2987 37.4736 81.4292 37.4474 81.4292V81.4945C37.343 81.6251 37.2777 81.6903 37.2516 81.6903C37.2255 81.7078 37.2255 81.7165 37.2516 81.7165C37.2777 81.7165 37.2516 81.7556 37.2124 81.7817C37.1472 81.8209 37.121 81.847 37.121 81.8862H37.0819V81.9123C37.0819 81.9123 37.0819 81.9515 37.0558 81.9776C37.0166 82.0428 36.9513 82.1081 36.9252 82.1473C36.886 82.1734 36.8599 82.2126 36.8599 82.2126C36.8338 82.2126 36.8208 82.2213 36.8208 82.2387C36.8208 82.2778 36.8208 82.304 36.7947 82.304H36.7555C36.7947 82.3431 36.6902 82.4345 36.6641 82.4084C36.6641 82.4084 36.6249 82.4084 36.6249 82.4345C36.6249 82.4998 36.4291 82.6943 36.4291 82.6943C36.403 82.6682 36.403 82.6943 36.403 82.7335C36.403 82.7596 35.7789 83.3837 35.7528 83.3837C35.7528 83.3837 35.6875 83.4489 35.6484 83.475C35.4525 83.6448 35.3625 83.7349 35.1013 83.9699C34.9316 84.1004 34.8024 84.1918 34.7763 84.1918C34.7763 84.1918 34.7371 84.231 34.711 84.2571C34.6457 84.2962 34.6065 84.3224 34.6065 84.2962C34.6065 84.2962 34.5413 84.3224 34.476 84.3876C34.4499 84.4529 34.3846 84.4921 34.3846 84.4921C34.3454 84.4529 34.3193 84.4921 34.254 84.5574C34.0582 84.714 32.9785 85.2989 32.3283 85.5979C32.0424 85.7285 31.6129 85.8838 31.3909 85.9491C31.0659 86.0144 30.5449 86.0535 30.2851 85.9491C29.96 85.8838 29.7642 85.7533 29.6989 85.6632C29.4391 85.2336 29.9587 84.5574 31.1951 83.5808C31.2865 83.5155 32.1064 82.9946 32.2617 82.8654C32.3009 82.8654 32.4576 82.7609 32.5607 82.6956C33.173 82.3053 33.8624 81.8888 34.2527 81.6538C34.2788 81.6538 34.3833 81.5885 34.4734 81.5232C34.7723 81.3666 34.8637 81.3013 35.3194 81.0415C35.5792 80.9109 35.8142 80.7817 35.8142 80.7817L35.8312 80.7699ZM35.792 81.3809C35.7659 81.3809 35.7267 81.4201 35.7267 81.3809C35.7093 81.3809 35.7006 81.394 35.7006 81.4201C35.7267 81.4201 35.7006 81.4462 35.7006 81.4462C35.6745 81.4462 35.6614 81.4375 35.6614 81.4201C35.6614 81.4201 35.6353 81.4201 35.6353 81.4462C35.6353 81.4854 35.5048 81.5768 35.3755 81.642C34.6862 82.0716 34.5295 82.163 34.4903 82.163C34.4642 82.163 34.4642 82.2021 34.4642 82.2021C34.4642 82.2195 34.4512 82.2282 34.4251 82.2282C34.399 82.2282 34.3598 82.2674 34.2945 82.2935C33.9433 82.5533 33.7736 82.6578 33.7083 82.6839C33.643 82.723 33.6169 82.7492 33.6169 82.7492L33.5778 82.7883C33.5516 82.7883 33.4864 82.8144 33.4472 82.8797C33.3819 82.9189 33.2905 82.9842 33.2266 83.0103C33.1613 83.0494 33.1221 83.0755 33.096 83.0755C33.096 83.1147 32.6665 83.4006 32.5359 83.4659C32.4706 83.5051 32.4445 83.5312 32.4445 83.5312C32.4445 83.5704 32.3792 83.5965 32.314 83.6356C32.1181 83.7662 32.0803 83.7923 31.8583 83.9607C31.7539 84.0521 31.6625 84.1174 31.6625 84.1174C31.6233 84.1174 31.5972 84.1566 31.5972 84.1827C31.5581 84.2218 31.5319 84.2218 31.5319 84.2218C31.4928 84.2218 31.4667 84.2479 31.4667 84.2871C31.4275 84.3132 31.2969 84.4177 31.2069 84.4829C30.9732 84.7049 30.7512 84.9386 30.7512 84.9647L30.712 85.0039C30.5815 85.1344 30.5554 85.1605 30.5554 85.2245C30.5554 85.2637 30.5162 85.2637 30.5162 85.2637C30.4901 85.2637 30.4901 85.2898 30.4901 85.2898C30.5075 85.3159 30.5075 85.3289 30.4901 85.3289C30.464 85.3289 30.464 85.3377 30.4901 85.3551C30.4901 85.3551 30.4901 85.3942 30.4509 85.3942C30.4248 85.3942 30.3857 85.654 30.3857 85.7193H30.4509C30.4901 85.7193 30.5815 85.6801 30.6846 85.6801C31.2317 85.5888 32.0516 85.2637 32.8323 84.808C33.0921 84.6775 33.9381 84.1187 34.0034 84.0534C34.0295 84.0273 34.224 83.8967 34.3546 83.7675C34.6535 83.5338 35.2397 82.9868 35.6562 82.5572C35.9552 82.206 36.0466 82.1016 36.3455 81.7112C36.4369 81.5546 36.5662 81.3861 36.6054 81.36V81.3209C36.6054 81.2948 36.8012 81.035 36.826 80.9958C36.8652 80.9958 36.8913 80.9305 36.9304 80.8652L36.9957 80.7347L36.9304 80.7738C36.8652 80.8 36.826 80.8 36.8652 80.7738C36.8913 80.7347 36.826 80.7347 36.7607 80.8C36.6954 80.9044 36.3704 81.0989 36.3704 81.0598C36.3442 81.0598 36.3704 81.0336 36.3704 80.9945C36.3965 80.9771 36.3965 80.9684 36.3704 80.9684C36.3442 80.9684 36.3442 80.9945 36.3442 81.0598C36.3442 81.0598 36.3442 81.0989 36.3051 81.0989C36.3051 81.0989 36.279 81.0989 36.2398 81.125C36.1745 81.1903 35.7842 81.424 35.8233 81.3848C35.8233 81.3674 35.8103 81.3674 35.7842 81.3848L35.792 81.3809ZM36.1184 80.6002C36.1575 80.6002 36.1837 80.5741 36.1837 80.5741C36.1575 80.5349 36.1575 80.5741 36.1184 80.6002C36.0749 80.6263 36.0749 80.6263 36.1184 80.6002ZM36.4174 80.4696C36.4435 80.4435 36.6132 80.3391 36.7424 80.2738C36.873 80.2085 37.1328 80.078 37.2895 79.9879L37.6146 79.8182L37.8482 79.467C37.9788 79.2711 38.1081 79.1027 38.1342 79.0766L38.1733 79.0374C38.1733 79.0113 38.2386 78.8808 38.3692 78.7124C38.4606 78.5557 38.5258 78.4525 38.5258 78.4525C38.5258 78.4525 38.4606 78.5178 38.3953 78.5831C38.33 78.6223 38.1994 78.7528 38.1355 78.8168C38.0441 78.8821 37.9788 78.9474 37.9396 78.9474C37.9135 78.9474 37.8744 78.9474 37.9135 78.9735C37.9135 78.9735 37.8744 79.0388 37.8091 79.104C37.7438 79.1432 37.6132 79.2737 37.5493 79.3377C37.4579 79.4291 37.3926 79.4944 37.3534 79.4683C37.3534 79.4683 37.3273 79.4683 37.3534 79.4944C37.3534 79.5336 37.2882 79.6249 37.2229 79.5988C37.262 79.6249 37.1315 79.7555 37.0923 79.7555H37.0662C37.0923 79.7947 36.6367 80.2111 36.5714 80.2503C36.5453 80.2503 36.5061 80.2764 36.4409 80.3417C36.4147 80.3809 36.3103 80.4461 36.2842 80.4723C36.1797 80.5767 36.245 80.5767 36.4147 80.4723L36.4174 80.4696Z" fill="white"/>
<path d="M41.2323 81.095C41.2323 81.0689 41.2976 80.9775 41.3759 80.8744C41.5587 80.6407 41.7924 80.3274 42.0913 79.9239C42.1044 79.8848 42.1958 79.7803 42.2611 79.6772C42.3394 79.5858 42.4308 79.4552 42.4569 79.4043C42.5483 79.2607 43.0561 78.5714 43.1332 78.48C43.2246 78.3494 43.2507 78.3233 43.3538 78.181C43.406 78.1027 43.4583 78.0374 43.4583 78.0374C43.4713 78.0374 43.5235 77.9721 43.5888 77.8938C43.8747 77.5295 44.2142 77.2044 44.3304 77.1653C44.3956 77.1522 44.487 77.1914 44.6685 77.3219C44.8382 77.4525 44.9022 77.5178 44.9022 77.6079C44.9153 77.6731 44.9022 77.6862 44.85 77.6993C44.8108 77.6993 44.7847 77.7254 44.7978 77.7384C44.8108 77.7515 44.7847 77.7515 44.7586 77.7254C44.7325 77.6993 44.7064 77.7254 44.551 77.882C44.4466 77.9734 44.3552 78.0648 44.3421 78.0648C44.3291 78.0648 44.3291 78.0648 44.3291 78.0779C44.3291 78.104 44.2638 78.2084 44.2377 78.1954C44.2377 78.1823 44.2246 78.1954 44.2246 78.2215C44.2116 78.2606 44.2377 78.2607 44.3291 78.1823C44.7194 77.8703 45.0837 77.6222 45.2273 77.5831C45.2926 77.57 45.3317 77.57 45.397 77.5961C45.5276 77.6353 45.7482 77.8037 45.8396 77.9081C45.9049 77.9734 45.9179 77.9995 45.9049 78.0909C45.9049 78.1431 45.8918 78.2084 45.8788 78.2345C45.8657 78.3129 45.8527 78.352 45.8527 78.352C45.8657 78.3651 45.8396 78.3912 45.8135 78.4173C45.7874 78.4434 45.7743 78.4695 45.7874 78.4695C45.7874 78.4695 45.7874 78.4956 45.7743 78.5218C45.7482 78.5479 45.7352 78.587 45.7352 78.6001C45.7352 78.6262 45.7221 78.6523 45.709 78.6654C45.6916 78.6741 45.6829 78.6828 45.6829 78.6915C45.6829 78.7568 45.6699 78.7829 45.6307 78.7829C45.6177 78.7829 45.6046 78.7829 45.6307 78.7959C45.6438 78.809 45.6568 78.822 45.6307 78.8482C45.6177 78.8743 45.6177 78.9004 45.6307 78.9004C45.6307 78.9004 45.6307 78.9134 45.5915 78.9395C45.5654 78.9526 45.5654 78.9657 45.5785 78.9657C45.5915 78.9657 45.5915 79.0048 45.5654 79.044C45.5393 79.0962 45.5263 79.1484 45.5263 79.1615C45.5002 79.2398 45.5002 79.2659 45.4871 79.279C45.4871 79.279 45.474 79.292 45.474 79.3051C45.474 79.3051 45.461 79.3312 45.461 79.3443C45.4349 79.3965 45.4088 79.5401 45.4088 79.6432C45.4218 79.6955 45.461 79.6824 46.1895 79.4357C46.5146 79.3312 46.931 79.1889 47.1008 79.1497C47.2705 79.0975 47.6217 78.98 47.8815 78.903C48.4155 78.7333 49.2223 78.4865 49.3255 78.4865C49.4821 78.4865 49.3907 78.5518 48.9481 78.7085C48.909 78.7215 48.5186 78.8782 48.5056 78.8782C48.5056 78.8912 48.4272 78.9304 48.4011 78.9435C48.3881 78.9435 48.3489 78.9696 48.3097 78.9957C48.2575 79.0218 48.2183 79.0348 48.1922 79.0348C48.1922 79.0218 48.1792 79.0348 48.1792 79.0348C48.1792 79.061 48.0356 79.1262 48.0094 79.1262C48.0007 79.1262 47.9964 79.1306 47.9964 79.1393C47.9964 79.1523 47.9442 79.1785 47.8789 79.2176C47.8136 79.2437 47.7483 79.2829 47.7483 79.296C47.7483 79.309 47.7092 79.309 47.67 79.3221C47.6439 79.3221 47.6178 79.3351 47.6178 79.3351C47.6308 79.3612 47.4219 79.4787 47.358 79.4787C47.3449 79.4787 47.3188 79.4918 47.3188 79.5048C47.3188 79.5179 47.2666 79.544 47.2274 79.5832C47.1099 79.6224 47.0838 79.6485 47.0068 79.6876C46.7992 79.8051 46.4859 79.9605 46.4597 79.9605C46.4467 79.9605 46.4206 79.9605 46.4075 79.9735C46.3684 80.0127 46.0172 80.091 45.8605 80.1172C45.6137 80.1302 45.4571 80.091 45.2234 79.9344C45.0027 79.8038 44.8852 79.6746 44.8461 79.5571C44.7938 79.4004 44.8069 79.1798 44.8591 79.0231C44.8722 79.01 44.8722 78.9709 44.8852 78.9448C44.8852 78.9056 44.9244 78.7881 44.9766 78.6458C45.055 78.4761 45.055 78.463 44.9375 78.5675C44.8852 78.6066 44.8461 78.6458 44.82 78.6458C44.8069 78.6458 44.7938 78.6458 44.8069 78.6588C44.82 78.6719 44.7808 78.698 44.6372 78.7894C44.6111 78.8155 44.5719 78.8416 44.5588 78.8677C44.5458 78.8808 44.5197 78.9069 44.5066 78.9069C44.4936 78.9069 44.4675 78.933 44.4413 78.9461C44.3761 78.9983 44.35 79.0244 44.1424 79.1928C44.064 79.2581 43.9857 79.3234 43.9857 79.3364C43.9857 79.3495 43.9596 79.3625 43.9335 79.3625C43.9074 79.3625 43.8943 79.3756 43.8943 79.3756C43.9074 79.4017 43.8813 79.4278 43.8421 79.4539C43.7899 79.5062 43.6724 79.5975 43.5431 79.7137C43.517 79.7399 43.4909 79.7529 43.4909 79.779C43.5039 79.779 43.4909 79.7921 43.4648 79.8051C43.4256 79.8051 43.4126 79.8312 43.4126 79.8312C43.4126 79.8443 43.3995 79.8573 43.3864 79.8573C43.3734 79.8573 43.3081 79.9096 43.2298 79.9879C43.1645 80.0662 43.0862 80.1185 43.0731 80.1185C43.0731 80.1185 43.047 80.1446 43.047 80.1576C43.047 80.1837 43.0339 80.1968 43.0209 80.1968C42.9948 80.1968 42.9817 80.2099 42.9817 80.236C42.9817 80.249 42.9687 80.2621 42.9556 80.2621C42.9295 80.2621 42.3694 80.8352 42.3694 80.8483C42.3825 80.8613 42.3694 80.8613 42.3433 80.8613C42.3302 80.8613 42.3172 80.8744 42.3302 80.8874C42.3302 80.8961 42.3215 80.9005 42.3041 80.9005C42.278 80.9005 42.265 80.9135 42.265 80.9266C42.265 80.9397 42.1866 81.018 42.1083 81.1094C42.03 81.2008 41.9647 81.2661 41.9647 81.2661C41.9777 81.2661 41.9386 81.3183 41.8994 81.3574C41.8211 81.4227 41.808 81.4358 41.7558 81.4097C41.7297 81.401 41.721 81.401 41.7297 81.4097C41.7384 81.4184 41.7166 81.4184 41.6644 81.4097C41.6252 81.3966 41.56 81.3574 41.5077 81.3444C41.4686 81.3313 41.4294 81.2922 41.4294 81.2922C41.4294 81.2791 41.4164 81.2661 41.4033 81.2791C41.3902 81.2922 41.3772 81.2791 41.3772 81.2661C41.3902 81.2399 41.3772 81.2399 41.3511 81.2399C41.338 81.2399 41.338 81.2269 41.338 81.2269C41.338 81.2008 41.325 81.2008 41.3119 81.2008C41.2858 81.2269 41.2336 81.1486 41.2205 81.1094L41.2323 81.095Z" fill="white"/>
<path d="M55.848 78.869C55.8611 78.8429 55.848 78.8299 55.8219 78.8429C55.8089 78.856 55.7697 78.8821 55.7697 78.9082C55.7567 78.9213 55.7305 78.9343 55.7044 78.9213C55.6783 78.9082 55.6392 78.9343 55.6 78.9604C55.5608 78.9865 55.5086 79.0257 55.4694 79.0518C55.4346 79.0692 55.4216 79.0692 55.4303 79.0518C55.4433 79.0257 55.4303 79.0257 55.3911 79.0518C55.3258 79.1171 54.9746 79.2594 54.9355 79.2594C54.9355 79.2594 54.8832 79.2725 54.831 79.3116C54.7788 79.3377 54.7396 79.3508 54.7527 79.3377C54.7657 79.3116 54.7396 79.3247 54.7135 79.3508C54.6613 79.3769 54.6352 79.39 54.6352 79.3769C54.6352 79.3638 54.6091 79.3769 54.5699 79.4161C54.5438 79.4422 54.5307 79.4422 54.5438 79.4291C54.5438 79.403 54.5177 79.4161 54.5046 79.4422C54.4524 79.4813 54.4002 79.5075 54.3741 79.5205C54.361 79.5205 54.3218 79.5336 54.3088 79.5466C54.2827 79.5597 54.2696 79.5597 54.2696 79.5466C54.2696 79.5336 54.2435 79.5466 54.2174 79.5727C54.1913 79.5988 54.1391 79.625 54.113 79.625C54.0738 79.638 54.0216 79.6511 53.9954 79.6772C53.9563 79.7294 53.9432 79.7294 53.9693 79.6772C53.978 79.6598 53.965 79.6641 53.9302 79.6902C53.9041 79.7294 53.8649 79.7425 53.8518 79.7294C53.8257 79.7163 53.8127 79.7294 53.8127 79.7425C53.8127 79.7816 53.592 79.8861 53.5659 79.873C53.5529 79.86 53.5398 79.86 53.5398 79.8861L53.4354 79.9122C53.3701 79.9383 53.3048 79.9644 53.2918 79.9775C53.2787 79.9905 53.2526 79.9905 53.2395 79.9775C53.2308 79.9775 53.2265 79.9818 53.2265 79.9905C53.2265 80.0166 53.2004 80.0297 53.1612 80.0297C53.1351 80.0297 53.109 80.0427 53.109 80.0558C53.0568 80.095 52.8231 80.1733 52.7839 80.1602C52.7665 80.1515 52.7621 80.1515 52.7708 80.1602C52.7839 80.1863 52.7447 80.2125 52.6533 80.2386C52.6142 80.2516 52.4575 80.3169 52.4066 80.3561C52.3413 80.3822 52.3152 80.3822 52.3021 80.3561C52.2891 80.33 52.276 80.33 52.276 80.3561C52.276 80.3822 52.2499 80.4083 52.1977 80.4213C52.1585 80.4475 52.1063 80.4605 52.0802 80.4736C52.0541 80.4866 52.028 80.4866 52.0149 80.4997C52.0149 80.4997 51.9888 80.4997 51.9888 80.5127C51.9757 80.5127 51.9627 80.5258 51.9366 80.5258C51.9235 80.5258 51.9105 80.5389 51.9105 80.5389C51.8974 80.5389 51.8844 80.5388 51.8582 80.5519C51.8321 80.5519 51.7146 80.578 51.5332 80.6172C51.3765 80.6694 51.2211 80.7086 51.182 80.7216C50.4926 80.8652 49.8281 80.9292 49.3463 80.8783C49.0213 80.8522 48.7863 80.7869 48.5787 80.6825C48.3711 80.578 48.0708 80.3182 47.9533 80.1485C47.875 80.031 47.8619 79.9918 47.8489 79.8495C47.8489 79.5636 47.9664 79.3286 48.2784 79.0166C48.7732 78.5348 49.3711 78.1575 50.178 77.8194C50.8804 77.5465 51.4535 77.429 52.0776 77.429C52.6116 77.4421 52.8452 77.5334 53.1442 77.8455C53.391 78.0922 53.4954 78.275 53.4824 78.3925C53.4693 78.4839 53.3649 78.6393 53.2996 78.6393C53.2735 78.6393 53.2474 78.6523 53.2474 78.6654C53.2343 78.6654 53.156 78.7176 53.0907 78.7698C53.0124 78.822 52.9601 78.8481 52.9601 78.8351C52.9775 78.809 52.9732 78.8046 52.9471 78.822C52.921 78.8481 52.8818 78.8612 52.8557 78.8743C52.8165 78.8743 52.7643 78.9004 52.7251 78.9134C52.686 78.9395 52.6337 78.9657 52.6076 78.9657C52.5946 78.9657 52.5554 78.9787 52.5293 78.9918C52.5162 78.9918 52.5032 79.0048 52.5032 78.9918C52.5032 78.9787 52.4771 78.9787 52.464 79.0048C52.451 79.0179 52.3987 79.0309 52.3465 79.044C52.2029 79.0831 52.216 79.0701 52.1637 79.0962C52.1376 79.1093 52.0854 79.1223 52.0462 79.1223C52.0071 79.1354 51.9549 79.1354 51.9287 79.1484C51.8374 79.1745 51.3164 79.279 51.0958 79.3051C51.0436 79.3181 51.0044 79.3312 50.9652 79.3312C50.7825 79.3704 50.4052 79.3704 50.302 79.3443C50.2367 79.3181 49.9378 79.1223 49.9247 79.0714C49.9247 79.0583 49.8986 79.0192 49.8594 78.9931C49.8203 78.967 49.7941 78.9278 49.7941 78.9017C49.7941 78.8756 49.755 78.8886 49.6505 78.9539C49.5983 78.9931 49.5069 79.0583 49.4939 79.0845C49.4678 79.0975 49.4286 79.1106 49.4025 79.1106C49.3894 79.0975 49.3764 79.0975 49.3894 79.1236C49.3894 79.1367 49.3894 79.1497 49.3764 79.1497C49.3633 79.1497 49.3111 79.1758 49.285 79.1889C49.1153 79.3325 49.0382 79.3965 49.0382 79.3847C49.0382 79.3847 48.986 79.4239 48.9338 79.4761C48.8946 79.5283 48.8554 79.5545 48.8424 79.5545C48.8337 79.5457 48.8337 79.5457 48.8424 79.5545C48.8685 79.6067 48.7641 79.6981 48.7379 79.6589C48.7249 79.6458 48.7249 79.6589 48.7379 79.685C48.751 79.7242 48.7379 79.7503 48.7118 79.7633C48.6857 79.7764 48.6596 79.8286 48.6466 79.8547C48.6204 79.8939 48.5682 79.8939 48.5421 79.8939C48.516 79.8939 48.5029 79.907 48.5291 79.92C48.5552 79.92 48.5552 79.9461 48.5291 79.9983C48.5029 80.0506 48.4768 80.1289 48.4638 80.1811L48.4246 80.2856L48.5682 80.3117C48.738 80.3378 49.6479 80.3378 49.8307 80.3117C49.909 80.2986 50.1036 80.2725 50.2863 80.2464C50.4169 80.2334 50.5984 80.2072 50.6506 80.1942C51.1454 80.0897 51.366 80.0506 51.6663 79.9853C51.823 79.9331 52.0045 79.8939 52.0306 79.8939C52.0828 79.8939 52.4732 79.7895 52.7069 79.7242C53.3309 79.5283 54.2161 79.2424 54.9968 78.9957C55.7253 78.7359 56.5974 78.4617 56.506 78.527C56.4799 78.5531 56.4538 78.54 56.4538 78.5531C56.4538 78.5792 56.4277 78.5792 56.4147 78.5792C56.3885 78.5792 56.3233 78.6184 56.258 78.6575C56.1927 78.6967 56.1405 78.7228 56.1274 78.7098C56.11 78.7098 56.1013 78.7141 56.1013 78.7228C56.1013 78.7489 55.9708 78.8142 55.9316 78.8011C55.9185 78.8011 55.9055 78.8273 55.8663 78.8534C55.8272 78.8925 55.8141 78.8925 55.8271 78.8795L55.848 78.869ZM49.8868 78.8168C49.8868 78.8299 50.0305 78.8168 50.238 78.7907C50.5631 78.7385 50.759 78.6993 51.2146 78.5701C51.5266 78.5048 51.8909 78.4134 52.0345 78.3742C52.3204 78.2828 52.7369 78.0752 52.7369 78.0361C52.7369 78.023 52.1115 78.0491 51.9692 78.0753C51.9431 78.0753 51.8648 78.0883 51.8125 78.1014C51.7473 78.1014 51.695 78.1275 51.6298 78.1405C51.5775 78.1536 51.5384 78.1536 51.5384 78.1536C51.5384 78.1405 51.5123 78.1536 51.4992 78.1666C51.4731 78.2058 51.46 78.2058 51.46 78.2058C51.46 78.1928 51.3948 78.2058 51.3164 78.245C51.2381 78.2711 51.1728 78.2841 51.1728 78.2841C51.1728 78.2711 51.1337 78.2841 51.0814 78.2972C51.0292 78.3233 51.0162 78.3494 51.0031 78.3494C50.977 78.3494 50.8725 78.3886 50.8203 78.4016C50.7812 78.4147 50.6767 78.4669 50.5736 78.493C50.43 78.5583 50.3777 78.5583 50.3529 78.5453C50.3355 78.5278 50.3312 78.5278 50.3399 78.5453C50.3529 78.5714 50.3138 78.6105 50.144 78.6889C50.0004 78.7541 49.8842 78.8194 49.8842 78.8194L49.8868 78.8168Z" fill="white"/>
<path d="M63.214 78.869C63.2271 78.8429 63.214 78.8299 63.1879 78.8429C63.1749 78.856 63.1357 78.8821 63.1357 78.9082C63.1226 78.9213 63.0965 78.9343 63.0704 78.9213C63.0443 78.9082 63.0051 78.9343 62.966 78.9604C62.9268 78.9865 62.8746 79.0257 62.8354 79.0518C62.8006 79.0692 62.7875 79.0692 62.7962 79.0518C62.8093 79.0257 62.7962 79.0257 62.7571 79.0518C62.6918 79.1171 62.3406 79.2594 62.3014 79.2594C62.3014 79.2594 62.2492 79.2725 62.197 79.3116C62.1448 79.3377 62.1056 79.3508 62.1187 79.3377C62.1317 79.3116 62.1056 79.3247 62.0795 79.3508C62.0273 79.3769 62.0012 79.39 62.0012 79.3769C62.0012 79.3638 61.975 79.3769 61.9359 79.4161C61.9098 79.4422 61.8967 79.4422 61.9098 79.4291C61.9098 79.403 61.8837 79.4161 61.8706 79.4422C61.8184 79.4813 61.7662 79.5075 61.74 79.5205C61.727 79.5205 61.6878 79.5336 61.6748 79.5466C61.6487 79.5597 61.6356 79.5597 61.6356 79.5466C61.6356 79.5336 61.6095 79.5466 61.5834 79.5727C61.5573 79.5988 61.505 79.625 61.4789 79.625C61.4398 79.638 61.3875 79.6511 61.3614 79.6772C61.3223 79.7294 61.3092 79.7294 61.3353 79.6772C61.344 79.6598 61.331 79.6641 61.2962 79.6902C61.27 79.7294 61.2309 79.7425 61.2178 79.7294C61.1917 79.7163 61.1787 79.7294 61.1787 79.7425C61.1787 79.7816 60.9567 79.8861 60.9319 79.873C60.9188 79.86 60.9058 79.86 60.9058 79.8861C60.9058 79.8861 60.8536 79.8991 60.8013 79.9122C60.7361 79.9383 60.6708 79.9644 60.6577 79.9775C60.6447 79.9905 60.6186 79.9905 60.6055 79.9775C60.5968 79.9775 60.5925 79.9818 60.5925 79.9905C60.5925 80.0166 60.5663 80.0297 60.5272 80.0297C60.5011 80.0297 60.475 80.0427 60.475 80.0558C60.4227 80.095 60.189 80.1733 60.1499 80.1602C60.1325 80.1515 60.1281 80.1515 60.1368 80.1602C60.1499 80.1863 60.1107 80.2125 60.0193 80.2386C59.9801 80.2516 59.8235 80.3169 59.7726 80.3561C59.7073 80.3822 59.6812 80.3822 59.6681 80.3561C59.6551 80.33 59.642 80.33 59.642 80.3561C59.642 80.3822 59.6159 80.4083 59.5637 80.4213C59.5245 80.4475 59.4723 80.4605 59.4462 80.4736C59.4201 80.4866 59.3939 80.4866 59.3809 80.4997C59.3809 80.4997 59.3548 80.4997 59.3548 80.5127C59.3417 80.5127 59.3287 80.5258 59.3026 80.5258C59.2895 80.5258 59.2764 80.5389 59.2764 80.5389C59.2634 80.5389 59.2503 80.5388 59.2242 80.5519C59.1981 80.5519 59.0806 80.578 58.8991 80.6172C58.7425 80.6694 58.5871 80.7086 58.5479 80.7216C57.8586 80.8652 57.1941 80.9292 56.7123 80.8783C56.3872 80.8522 56.1522 80.7869 55.9447 80.6825C55.7358 80.578 55.4368 80.3182 55.3206 80.1485C55.2423 80.031 55.2292 79.9918 55.2161 79.8495C55.2161 79.5636 55.3337 79.3286 55.6457 79.0166C56.1405 78.5348 56.7384 78.1575 57.5453 77.8194C58.2477 77.5465 58.8208 77.429 59.4449 77.429C59.9788 77.4421 60.2125 77.5334 60.5115 77.8455C60.7583 78.0922 60.8627 78.275 60.8496 78.3925C60.8366 78.4839 60.7321 78.6393 60.6669 78.6393C60.6408 78.6393 60.6146 78.6523 60.6146 78.6654C60.6016 78.6654 60.5233 78.7176 60.458 78.7698C60.3796 78.822 60.3274 78.8481 60.3274 78.8351C60.3448 78.809 60.3405 78.8046 60.3144 78.822C60.2883 78.8481 60.2491 78.8612 60.223 78.8743C60.1838 78.8743 60.1316 78.9004 60.0924 78.9134C60.0533 78.9395 60.001 78.9657 59.9749 78.9657C59.9619 78.9657 59.9227 78.9787 59.8966 78.9918C59.8835 78.9918 59.8705 79.0048 59.8705 78.9918C59.8705 78.9787 59.8444 78.9787 59.8313 79.0048C59.8183 79.0179 59.766 79.0309 59.7138 79.044C59.5702 79.0831 59.5833 79.0701 59.531 79.0962C59.5049 79.1093 59.4527 79.1223 59.4135 79.1223C59.3744 79.1354 59.3221 79.1354 59.296 79.1484C59.2046 79.1745 58.6837 79.279 58.4631 79.3051C58.4109 79.3181 58.3717 79.3312 58.3325 79.3312C58.1497 79.3704 57.7724 79.3704 57.6693 79.3443C57.604 79.3181 57.305 79.1223 57.292 79.0714C57.292 79.0583 57.2659 79.0192 57.2267 78.9931C57.1875 78.967 57.1614 78.9278 57.1614 78.9017C57.1614 78.8756 57.1223 78.8886 57.0178 78.9539C56.9656 78.9931 56.8742 79.0583 56.8612 79.0845C56.835 79.0975 56.7959 79.1106 56.7698 79.1106C56.7567 79.0975 56.7437 79.0975 56.7567 79.1236C56.7567 79.1367 56.7567 79.1497 56.7437 79.1497C56.7306 79.1497 56.6784 79.1758 56.6523 79.1889C56.4825 79.3325 56.4055 79.3965 56.4055 79.3847C56.4055 79.3847 56.3533 79.4239 56.3011 79.4761C56.2619 79.5283 56.2227 79.5545 56.2097 79.5545C56.201 79.5457 56.201 79.5457 56.2097 79.5545C56.2358 79.6067 56.1313 79.6981 56.1052 79.6589C56.0922 79.6458 56.0922 79.6589 56.1052 79.685C56.1183 79.7242 56.1052 79.7503 56.0791 79.7633C56.053 79.7764 56.0269 79.8286 56.0138 79.8547C55.9877 79.8939 55.9355 79.8939 55.9094 79.8939C55.8833 79.8939 55.8702 79.907 55.8963 79.92C55.9225 79.92 55.9225 79.9461 55.8963 79.9983C55.8702 80.0506 55.8441 80.1289 55.8311 80.1811L55.7919 80.2856L55.9355 80.3117C56.1052 80.3378 57.0152 80.3378 57.198 80.3117C57.2763 80.2986 57.4709 80.2725 57.6536 80.2464C57.7842 80.2334 57.9657 80.2072 58.0179 80.1942C58.5127 80.0897 58.7333 80.0506 59.0336 79.9853C59.1903 79.9331 59.3718 79.8939 59.3979 79.8939C59.4501 79.8939 59.8405 79.7895 60.0741 79.7242C60.6982 79.5283 61.5834 79.2424 62.3641 78.9957C63.0926 78.7359 63.9647 78.4617 63.8733 78.527C63.8472 78.5531 63.8211 78.54 63.8211 78.5531C63.8211 78.5792 63.795 78.5792 63.7819 78.5792C63.7558 78.5792 63.6906 78.6184 63.6253 78.6575C63.56 78.6967 63.5078 78.7228 63.4947 78.7098C63.4773 78.7098 63.4686 78.7141 63.4686 78.7228C63.4686 78.7489 63.3381 78.8142 63.2989 78.8011C63.2858 78.8011 63.2728 78.8273 63.2336 78.8534C63.1944 78.8925 63.1814 78.8925 63.1944 78.8795L63.214 78.869ZM57.2528 78.8168C57.2528 78.8299 57.3964 78.8168 57.604 78.7907C57.9291 78.7385 58.1249 78.6993 58.5806 78.5701C58.8926 78.5048 59.2569 78.4134 59.4005 78.3742C59.6864 78.2828 60.1029 78.0752 60.1029 78.0361C60.1029 78.023 59.4775 78.0491 59.3352 78.0753C59.3091 78.0753 59.2308 78.0883 59.1785 78.1014C59.1133 78.1014 59.061 78.1275 58.9958 78.1405C58.9435 78.1536 58.9044 78.1536 58.9044 78.1536C58.9044 78.1405 58.8783 78.1536 58.8652 78.1666C58.8391 78.2058 58.826 78.2058 58.826 78.2058C58.826 78.1928 58.7608 78.2058 58.6824 78.245C58.6041 78.2711 58.5388 78.2841 58.5388 78.2841C58.5388 78.2711 58.4996 78.2841 58.4474 78.2972C58.3952 78.3233 58.3821 78.3494 58.3691 78.3494C58.343 78.3494 58.2385 78.3886 58.1863 78.4016C58.1471 78.4147 58.0427 78.4669 57.9396 78.493C57.7959 78.5583 57.7437 78.5583 57.7189 78.5453C57.7015 78.5278 57.6972 78.5278 57.7059 78.5453C57.7189 78.5714 57.6797 78.6105 57.51 78.6889C57.3664 78.7541 57.2502 78.8194 57.2502 78.8194L57.2528 78.8168Z" fill="white"/>
<path d="M73.0266 78.4787C73.0658 78.4656 72.9875 78.557 72.9352 78.6092C72.9222 78.6092 72.8308 78.6876 72.8047 78.7006C72.6611 78.8181 72.4274 78.9604 72.2198 79.091C71.8425 79.3116 71.3477 79.625 71.0095 79.8456C70.9181 79.9239 70.4886 80.1968 70.281 80.3012C70.2027 80.3404 70.1113 80.3926 70.0591 80.4318C69.9285 80.5362 69.2131 80.8483 69.0434 80.8874C68.8097 80.9397 68.6008 80.9266 68.4062 80.8483C68.0159 80.7047 67.7809 80.484 67.7561 80.2621C67.73 80.1446 67.7691 79.8325 67.8213 79.7934C67.8344 79.7803 67.8605 79.7412 67.8605 79.6889C67.8997 79.5714 68.0289 79.3116 68.0942 79.2463C68.1203 79.2072 68.1464 79.155 68.1595 79.1158L68.1987 79.0505L68.1464 79.1027C68.0812 79.1419 68.042 79.1811 68.0289 79.1811C68.0028 79.1811 67.9637 79.1941 67.9375 79.2333C67.9114 79.2594 67.8592 79.2855 67.8462 79.2855C67.82 79.2855 67.7809 79.3247 67.7548 79.3508C67.7025 79.3769 67.6764 79.4161 67.6503 79.4161C67.6242 79.4161 67.5981 79.4291 67.5459 79.4683C67.5198 79.5075 67.4675 79.5205 67.4414 79.5205C67.4153 79.5205 67.3892 79.5597 67.35 79.5858C67.3239 79.625 67.2717 79.6511 67.2587 79.6511C67.2456 79.6511 67.2195 79.6641 67.1673 79.6902C67.1411 79.7294 66.9975 79.8077 66.8683 79.86C66.6463 79.9775 66.6215 79.9775 66.4649 79.9644C66.2834 79.9513 65.88 79.7438 65.7755 79.6263C65.7494 79.5871 65.7233 79.4957 65.7103 79.4435C65.7103 79.326 65.7755 79.0531 65.88 78.8455C65.9191 78.7933 65.88 78.8064 65.7494 78.8847C65.6841 78.95 65.5928 79.0022 65.568 79.0022C65.5549 79.0022 65.5418 79.0153 65.5418 79.0153C65.5418 79.0283 65.4635 79.1066 65.346 79.1719C65.1893 79.2633 65.1123 79.3155 64.9687 79.4317C64.9295 79.4448 64.9034 79.4709 64.8773 79.4709C64.8643 79.4709 64.8251 79.497 64.799 79.5231C64.7859 79.5623 64.7467 79.5884 64.7337 79.5884C64.7076 79.5884 64.6554 79.6145 64.6423 79.6276C64.6423 79.6667 64.6031 79.6798 64.577 79.6798C64.5509 79.6798 64.5379 79.6928 64.5248 79.719C64.5118 79.7451 64.4726 79.7581 64.4595 79.7581C64.4465 79.7581 64.3943 79.8103 64.329 79.8495C64.2637 79.9148 64.2245 79.9409 64.1984 79.9409C64.1854 79.9409 64.1723 79.967 64.1592 79.9931C64.1462 80.0062 64.107 80.0323 64.094 80.0323C64.0679 80.0323 64.0417 80.0453 64.0287 80.0715L63.9895 80.1106C63.9504 80.1237 63.8851 80.1628 63.8067 80.2281C63.7676 80.2673 63.6631 80.3195 63.624 80.3456C63.5587 80.3717 63.4804 80.4109 63.4412 80.437C63.3106 80.5023 63.0769 80.4762 62.855 80.3587C62.4777 80.1628 62.4255 80.0728 62.543 79.7464C62.5952 79.5897 62.8942 79.0048 62.9725 78.9265C62.9855 78.9134 63.0508 78.809 63.1161 78.7189C63.3237 78.4069 63.8577 77.8076 64.1436 77.5478C64.2089 77.4825 64.3002 77.4434 64.3264 77.4434C64.4439 77.4434 64.9126 77.7293 64.9517 77.8468C64.9778 77.8859 64.8995 77.9904 64.7559 78.0935C64.5744 78.2371 64.5091 78.2894 64.5222 78.2894C64.5352 78.3024 64.47 78.3677 64.4047 78.4199C64.3525 78.4721 64.3002 78.5374 64.3133 78.5374C64.3264 78.5374 64.3002 78.5505 64.248 78.5896C64.2219 78.6158 64.1436 78.7071 64.0914 78.7724C64.0391 78.8377 64.013 78.8769 63.9869 78.8769C63.9739 78.8769 63.9608 78.903 63.9739 78.916C63.9739 78.9334 63.9652 78.9421 63.9477 78.9421C63.9477 78.9421 63.9347 78.9552 63.9216 78.9944C63.9216 79.0205 63.9086 79.0335 63.8825 79.0335C63.8694 79.0335 63.8433 79.0727 63.8302 79.1119C63.8041 79.151 63.778 79.1771 63.765 79.1641C63.7519 79.151 63.7389 79.1771 63.7519 79.1902C63.7519 79.2163 63.7389 79.2424 63.7258 79.2424C63.6997 79.2424 63.6997 79.2555 63.7127 79.2685C63.7127 79.2685 63.6997 79.3077 63.6736 79.3469C63.6475 79.373 63.6214 79.4252 63.6344 79.4383H63.6083C63.5952 79.4383 63.5691 79.4644 63.5691 79.4774C63.5691 79.5035 63.6214 79.4644 63.7127 79.4252C63.9347 79.2685 64.376 78.9435 64.4282 78.9043C64.4674 78.8782 64.5718 78.7998 64.6619 78.7346C64.7663 78.6823 64.8708 78.6171 64.8838 78.604C64.9883 78.5126 65.6123 78.1092 65.7951 78.0061C66.1985 77.7593 66.316 77.7332 66.602 77.9016C66.8239 78.0452 67.0445 78.2006 67.0184 78.2267C67.0054 78.2267 66.9923 78.2789 67.0054 78.305C67.0315 78.3834 66.9401 78.527 66.914 78.4878C66.9009 78.4748 66.914 78.4878 66.914 78.5009C66.927 78.54 66.9009 78.6836 66.8618 78.6706C66.8487 78.6575 66.8356 78.7098 66.8226 78.7489C66.8226 78.8011 66.7965 78.8534 66.7834 78.8534C66.7573 78.8664 66.7443 78.8664 66.7443 78.8925C66.7573 78.9056 66.7443 78.9186 66.7312 78.9186C66.7051 78.9186 66.7051 78.9317 66.7051 78.9448C66.7051 78.9839 66.6268 79.1667 66.5876 79.2046C66.5484 79.2568 66.8213 79.1132 66.8474 79.061C66.8866 79.0348 67.6151 78.5792 67.9402 78.3847C68.0968 78.2933 68.3697 78.1379 68.5264 78.0465C68.9428 77.7998 69.1896 77.6692 69.3201 77.6692C69.3724 77.6692 69.4899 77.7345 69.6191 77.7998C69.9442 77.9826 70.0486 78.0987 69.9311 78.2163C69.905 78.2293 69.8789 78.2685 69.8789 78.2815C69.8789 78.3207 69.7484 78.4513 69.7222 78.4251C69.7092 78.4251 69.7092 78.4382 69.7092 78.4643C69.7222 78.4774 69.6831 78.5426 69.6309 78.5818C69.5786 78.621 69.5656 78.6471 69.5786 78.6471C69.5786 78.6471 69.5656 78.6732 69.5395 78.6993C69.5134 78.7124 69.4742 78.7646 69.435 78.8038C69.3959 78.8429 69.3697 78.8821 69.3306 78.9082C69.3045 78.9343 69.2914 78.9474 69.3045 78.9474C69.3175 78.9474 69.3045 78.9735 69.2784 79.0126C69.2653 79.0388 69.2261 79.0649 69.2 79.0518C69.2 79.0388 69.187 79.0518 69.187 79.0779C69.187 79.091 69.187 79.1171 69.1609 79.104C69.1347 79.104 69.1347 79.1171 69.1217 79.1432C69.1347 79.1563 69.1217 79.1954 69.0825 79.2215C69.0695 79.2476 69.0564 79.2738 69.0695 79.2868C69.0564 79.2999 69.0434 79.2999 69.0172 79.2868C68.9911 79.2781 68.9781 79.2868 68.9781 79.3129C69.0172 79.3521 69.0172 79.3651 68.965 79.4043C68.9259 79.4304 68.8867 79.4565 68.8867 79.4826C68.8606 79.574 68.7692 79.6915 68.7561 79.6915C68.73 79.6915 68.73 79.7046 68.7431 79.7176C68.7431 79.7307 68.7431 79.7568 68.717 79.7568C68.6909 79.7699 68.6909 79.809 68.6778 79.8482C68.6909 79.8743 68.6778 79.9004 68.6517 79.9004C68.6256 79.9004 68.6125 79.9265 68.6125 79.9527C68.6256 79.9918 68.5995 80.031 68.5864 80.0571C68.5211 80.0963 68.4559 80.3952 68.482 80.4083C68.5211 80.4344 68.6256 80.5389 69.2235 80.2777C69.2888 80.2516 69.5486 80.1211 69.8228 79.9918C70.2393 79.7842 70.486 79.6798 71.332 79.2241C71.4626 79.1589 71.7876 79.0035 71.9182 78.9382C72.4 78.7045 72.8164 78.5479 73.011 78.4956L73.0266 78.4787Z" fill="white"/>
<path d="M73.8596 80.796C73.5214 80.9005 73.2225 80.9266 73.0527 80.8744C72.9222 80.8352 72.6754 80.6916 72.6754 80.6668C72.6754 80.6537 72.6624 80.6407 72.6363 80.6407C72.571 80.6407 72.5057 80.5754 72.4796 80.4579C72.4535 80.3926 72.4535 80.3535 72.5057 80.2621C72.571 80.1185 72.9875 79.6889 73.2734 79.4813C73.5593 79.2607 73.9366 78.9865 73.9758 78.9865C73.9888 78.9865 74.0019 78.9735 74.0019 78.9604C74.0149 78.9343 74.327 78.7528 74.6925 78.5309C74.9915 78.3481 75.643 77.9969 75.8897 77.9055C75.9942 77.8533 76.1234 77.788 76.1626 77.788C76.2018 77.7619 76.3584 77.6966 76.5138 77.6444C77.2162 77.4107 77.6979 77.3585 77.9199 77.4877C78.0504 77.553 78.3755 77.8389 78.4277 77.9564C78.4408 77.9956 78.4538 78.0478 78.4408 78.0739C78.4408 78.1131 78.4669 78.1392 78.5713 78.2045C78.728 78.2959 78.8442 78.4003 78.8703 78.4774C78.8834 78.5165 78.8834 78.5687 78.8573 78.634C78.8442 78.6862 78.8312 78.7385 78.8442 78.7385C78.8442 78.7472 78.8355 78.7515 78.8181 78.7515C78.8181 78.7515 78.805 78.7776 78.805 78.8037C78.805 78.8299 78.792 78.856 78.7789 78.869C78.7659 78.8821 78.7659 78.9082 78.7659 78.9213C78.7659 78.9343 78.7528 78.9474 78.7267 78.9343C78.7137 78.9343 78.7006 78.9604 78.7006 79.0126C78.7006 79.0649 78.7006 79.0779 78.6484 79.0779C78.6223 79.0649 78.6223 79.0779 78.6353 79.091C78.6614 79.104 78.6614 79.1301 78.6484 79.1432C78.6353 79.1563 78.6223 79.1954 78.6223 79.1954C78.6223 79.2085 78.6223 79.2476 78.5962 79.2999C78.5831 79.3521 78.57 79.4174 78.557 79.4565C78.557 79.4957 78.5439 79.5349 78.5309 79.561C78.4656 79.7438 78.4656 79.7686 78.8037 79.7176C79.4408 79.6524 81.0937 78.7541 81.4854 78.5596C81.7452 78.4291 81.8235 78.4682 81.629 78.651C81.5637 78.7163 81.5245 78.7424 81.5376 78.7163C81.5506 78.6902 81.5245 78.7163 81.4854 78.7554C81.4201 78.8338 80.0793 79.6798 80.0009 79.6798C79.9879 79.6928 79.9618 79.7059 79.9618 79.732C79.9487 79.7451 79.9095 79.7712 79.8834 79.7712C79.8573 79.7712 79.8312 79.7842 79.8312 79.7973C79.8312 79.8234 79.7007 79.8756 79.6615 79.8626C79.6528 79.8539 79.6528 79.8539 79.6615 79.8626C79.6745 79.8756 79.3103 80.0453 79.0766 80.1093C78.8677 80.1615 78.6732 80.1485 78.5296 80.0832C78.3612 80.031 78.0087 79.7842 77.9434 79.6928C77.8259 79.5101 77.8259 79.2894 77.9564 78.9252L78.0217 78.7424L77.9303 78.7685C77.8389 78.7946 77.4094 79.0152 77.2671 79.1066C77.2149 79.1327 77.0856 79.1719 76.9551 79.2372C76.8376 79.2894 76.6169 79.4069 76.4733 79.497C76.3428 79.5753 76.1482 79.6798 76.0568 79.7176C75.9654 79.7699 75.8349 79.8482 75.784 79.8743C75.5242 80.044 74.6912 80.4475 74.3257 80.6159C74.2734 80.6289 74.2343 80.655 74.2082 80.6681C74.169 80.6811 74.0123 80.7464 73.857 80.7986L73.8596 80.796ZM73.7943 80.1837C74.1847 80.014 74.2499 79.9748 74.6272 79.7803C74.8361 79.6759 75.1612 79.4944 75.3296 79.4161C75.4863 79.3247 75.8636 79.1432 76.1626 78.9865C76.4616 78.8168 76.7488 78.6614 76.8128 78.6353C76.878 78.5962 77.0347 78.5178 77.177 78.4395C77.3763 78.3438 77.4803 78.2702 77.489 78.2189C77.5021 78.1797 77.5151 78.1405 77.5413 78.1014L77.5804 78.023L77.5151 78.0491C77.489 78.0622 77.4499 78.0752 77.4499 78.0622C77.4499 78.0491 77.4368 78.0622 77.4107 78.0752C77.3846 78.1014 77.3715 78.1014 77.3715 78.1014C77.3715 78.0883 77.3193 78.1014 77.2671 78.1275C77.2018 78.1536 77.1235 78.1666 77.1104 78.1797C77.0713 78.1797 77.0321 78.1797 77.019 78.1927C77.006 78.1927 76.9668 78.2189 76.9276 78.2319C76.9015 78.258 76.8624 78.2711 76.8493 78.2711C76.8363 78.2711 76.784 78.2841 76.7318 78.3102C76.7057 78.3102 76.6796 78.3233 76.6665 78.3233C76.6535 78.3233 76.6404 78.3364 76.6404 78.3494C76.6404 78.3625 76.6143 78.3625 76.5751 78.3625C76.549 78.3625 76.5099 78.3755 76.4968 78.3886C76.4838 78.4016 76.4446 78.4277 76.4315 78.4277C76.3793 78.4408 76.301 78.48 76.0673 78.5844C75.9628 78.6366 75.8976 78.6627 75.9106 78.6497C75.9237 78.6105 75.9237 78.6236 75.7539 78.728C75.7017 78.7541 75.6364 78.7803 75.6103 78.7933C75.5842 78.7933 75.532 78.8194 75.4798 78.8586C75.4145 78.8847 75.3231 78.9369 75.2461 78.963C75.1808 78.9891 75.1155 79.0283 75.1155 79.0414C75.1155 79.0675 75.0894 79.0675 75.0764 79.0675C75.0502 79.0675 75.0111 79.1066 74.9719 79.1328C74.9197 79.1458 74.8035 79.2111 74.699 79.2894C74.5946 79.3416 74.4523 79.433 74.387 79.4853C74.3217 79.5244 74.2565 79.5636 74.2434 79.5636C74.2304 79.5636 74.2173 79.5766 74.2042 79.6158C74.1912 79.6419 74.152 79.6811 74.0998 79.6941C74.0737 79.7072 74.0084 79.7464 73.9823 79.7855C73.9431 79.8116 73.8909 79.8639 73.8648 79.8769C73.7081 79.9944 73.5005 80.189 73.3961 80.2934L73.3308 80.3717L73.5005 80.3064C73.5658 80.2803 73.7094 80.2281 73.7865 80.189L73.7943 80.1837Z" fill="white"/>
<path d="M89.3083 79.104C89.243 79.1693 88.9701 79.3769 88.9963 79.3377C89.0093 79.3116 88.9963 79.3377 88.9571 79.3769C88.8135 79.5205 88.5798 79.702 88.5667 79.702C88.5406 79.702 88.4623 79.7673 88.3578 79.8325C88.1633 79.9761 87.7978 80.1576 87.551 80.249C87.2781 80.3273 86.8094 80.3273 86.5614 80.249C86.0796 80.0793 85.7415 79.8325 85.6501 79.6236C85.637 79.5845 85.6109 79.5453 85.6109 79.5453C85.6109 79.5453 85.5457 79.5845 85.5065 79.6236C85.4412 79.6889 85.402 79.702 85.389 79.702C85.389 79.702 85.3629 79.702 85.3629 79.7281C85.3629 79.7542 85.3542 79.7673 85.3368 79.7673C85.3237 79.7673 85.2845 79.8064 85.2454 79.8456C85.154 79.95 84.9334 80.1185 84.8942 80.1185C84.8942 80.1185 84.842 80.1446 84.8289 80.1576C84.8028 80.1968 84.7636 80.2229 84.7245 80.249C84.6984 80.2621 84.62 80.3012 84.5417 80.3665C84.308 80.4971 84.0077 80.5872 83.8001 80.6133C83.6304 80.6394 83.5912 80.6394 83.4098 80.5741C82.928 80.4044 82.7465 80.2621 82.7465 80.014C82.7465 79.9357 82.7204 79.8965 82.7204 79.8965C82.7204 79.8965 82.6682 79.9357 82.6029 80.001C82.5638 80.0532 82.4985 80.0923 82.4985 80.0923C82.4724 80.0923 82.4332 80.1446 82.394 80.1837C82.3549 80.2229 82.3157 80.2621 82.3157 80.2621C82.3157 80.249 82.2896 80.2621 82.2504 80.3012C82.1721 80.3665 81.9776 80.4971 81.7948 80.6133C81.6512 80.6916 81.3391 80.7177 81.1577 80.6394C80.9109 80.548 80.689 80.4057 80.6237 80.3273C80.5584 80.2229 80.5584 79.9761 80.5976 79.7542C80.689 79.403 81.0793 78.6614 81.4827 78.0622C81.6264 77.8664 81.6903 77.7502 81.6264 77.7893C81.5872 77.8154 81.5741 77.6718 81.5872 77.6066C81.7177 77.476 81.8209 77.399 81.9253 77.399C82.0428 77.399 82.4724 77.6196 82.5376 77.7241C82.5638 77.7763 82.5768 77.8154 82.5638 77.8285C82.5376 77.8285 82.5115 77.9199 82.5115 77.9329C82.5115 77.9591 82.394 78.1405 82.3549 78.1797C82.3288 78.2189 82.3157 78.245 82.3157 78.2711C82.3157 78.2711 82.2896 78.2841 82.2635 78.2711C82.2548 78.2711 82.2504 78.2754 82.2504 78.2841C82.2635 78.3102 82.1851 78.493 82.146 78.493C82.1068 78.493 82.1068 78.5191 82.1068 78.5191C82.1199 78.5322 82.1199 78.5583 82.1068 78.5583C82.0894 78.5583 82.0807 78.5627 82.0807 78.5714C82.1068 78.5714 82.0807 78.6105 82.0676 78.6366C82.0415 78.6366 82.0154 78.6758 82.0154 78.7019C82.0154 78.715 82.0024 78.7411 82.0024 78.715C81.9762 78.715 81.9632 78.7411 81.9632 78.7803C81.9371 78.8194 81.924 78.8455 81.924 78.8194C81.9066 78.8194 81.8979 78.8281 81.8979 78.8455C81.924 78.8847 81.8196 79.0153 81.7935 78.9891C81.7935 78.963 81.7935 78.9891 81.7935 79.0153C81.8196 79.0544 81.7935 79.0675 81.7543 79.0544C81.7282 79.037 81.7282 79.0414 81.7543 79.0675C81.7935 79.0936 81.7935 79.1066 81.7935 79.1066C81.7674 79.1066 81.7282 79.1589 81.689 79.2111C81.676 79.2764 81.6107 79.3808 81.5715 79.4448C81.5454 79.5101 81.5062 79.5492 81.5062 79.5492C81.4801 79.5231 81.4801 79.5492 81.5062 79.5623C81.5062 79.5623 81.5062 79.6276 81.4801 79.6537C81.4671 79.6928 81.441 79.732 81.441 79.732V79.7581C81.4279 79.7581 81.4279 79.7712 81.4018 79.7973C81.4018 79.8365 81.3757 79.9148 81.3626 79.9801L81.2974 80.1237L81.3626 80.0976C81.3757 80.0845 81.4279 80.0584 81.4279 80.0584C81.441 80.0453 81.4801 80.0062 81.5454 79.9539C81.689 79.8495 82.287 79.3038 82.7426 78.8612C82.9502 78.6654 83.133 78.4969 83.1983 78.4708C83.2766 78.4578 83.4842 78.5231 83.7061 78.6406C83.9007 78.7189 83.9398 78.7711 83.9137 78.8625C83.9007 78.9147 83.9007 78.9539 83.9007 78.9669C83.9007 78.9931 83.8745 78.9931 83.8484 78.9931C83.8354 78.9669 83.8354 78.9931 83.8484 79.0192C83.8484 79.0322 83.8484 79.0714 83.8354 79.0975C83.8093 79.1106 83.7962 79.1367 83.7962 79.1628C83.7701 79.2411 83.6918 79.4095 83.6657 79.3834V79.4226C83.6657 79.4487 83.6656 79.4618 83.6526 79.4618C83.6352 79.4618 83.6265 79.4705 83.6265 79.4879C83.6526 79.514 83.6004 79.6576 83.5873 79.6315C83.5612 79.6315 83.5612 79.6576 83.5482 79.6968C83.5482 79.7098 83.5481 79.7751 83.522 79.8012V79.8795C83.522 79.9057 83.4959 79.9187 83.4829 79.9056C83.4568 79.8795 83.4568 79.9057 83.4829 79.9448C83.522 79.984 83.4959 80.0884 83.4568 80.0884C83.4481 80.0884 83.4481 80.0928 83.4568 80.1015C83.4829 80.1276 83.4829 80.1537 83.4568 80.1668C83.4568 80.1929 83.4872 80.1929 83.5482 80.1668C84.0038 79.984 84.6148 79.5166 85.0326 79.0348C85.214 78.8273 85.5013 78.4748 85.6044 78.3194C85.6044 78.2933 85.7089 78.1497 85.8133 77.9812C85.9177 77.8376 86.0352 77.6953 86.0601 77.6562C86.1384 77.5909 86.3068 77.617 86.594 77.7867C86.8408 77.8781 86.8408 77.9042 86.8669 77.9826C86.8669 78.087 86.8016 78.3338 86.7624 78.3338C86.7363 78.3338 86.7233 78.3599 86.7363 78.3599C86.7363 78.3729 86.7363 78.4251 86.7233 78.4643C86.6972 78.5296 86.6711 78.5688 86.6972 78.5688C86.6972 78.5688 86.6972 78.5818 86.6711 78.6079C86.658 78.621 86.6319 78.621 86.6188 78.621C86.6014 78.6123 86.6014 78.6123 86.6188 78.621C86.6188 78.6471 86.6188 78.7124 86.5666 78.7515C86.5536 78.8168 86.5536 78.856 86.5536 78.856C86.5666 78.856 86.5536 78.869 86.5144 78.9213C86.4883 78.9343 86.4752 78.9604 86.4752 78.9604C86.4752 78.9604 86.4752 78.9996 86.4491 79.0388C86.4491 79.0779 86.423 79.1171 86.4099 79.104C86.4099 79.104 86.3838 79.1432 86.3838 79.2085C86.3838 79.2476 86.3708 79.2868 86.3708 79.3129C86.3447 79.3129 86.3447 79.326 86.3447 79.3521C86.3708 79.3651 86.3447 79.3913 86.3447 79.3913C86.3055 79.3521 86.3186 79.7425 86.3708 79.8469C86.3969 79.9165 86.4491 79.9513 86.5274 79.9513C86.8134 79.9513 87.0484 79.8991 88.1542 79.4043C89.0263 79.014 89.508 78.728 89.9506 78.5061C90.042 78.4669 89.9115 78.6236 89.7169 78.7789C89.5472 78.9226 89.3918 79.0388 89.3005 79.1171L89.3083 79.104Z" fill="white"/>
<path d="M88.6568 80.796C88.3187 80.9005 88.0197 80.9266 87.85 80.8744C87.7194 80.8352 87.4727 80.6916 87.4727 80.6668C87.4727 80.6537 87.4596 80.6407 87.4335 80.6407C87.3682 80.6407 87.303 80.5754 87.2769 80.4579C87.2507 80.3926 87.2507 80.3535 87.303 80.2621C87.3682 80.1185 87.7847 79.6889 88.0706 79.4813C88.3566 79.2607 88.7339 78.9865 88.773 78.9865C88.7861 78.9865 88.7991 78.9735 88.7991 78.9604C88.8122 78.9343 89.1242 78.7528 89.4898 78.5309C89.7888 78.3481 90.4402 77.9969 90.687 77.9055C90.7914 77.8533 90.9207 77.788 90.9598 77.788C90.999 77.7619 91.1557 77.6966 91.311 77.6444C92.0134 77.4107 92.4952 77.3585 92.7171 77.4877C92.8477 77.553 93.1728 77.8389 93.225 77.9564C93.2381 77.9956 93.2511 78.0478 93.238 78.0739C93.238 78.1131 93.2642 78.1392 93.3686 78.2045C93.5253 78.2959 93.6415 78.4003 93.6676 78.4774C93.6806 78.5165 93.6806 78.5687 93.6545 78.634C93.6415 78.6862 93.6284 78.7385 93.6415 78.7385C93.6415 78.7472 93.6328 78.7515 93.6154 78.7515C93.6154 78.7515 93.6023 78.7776 93.6023 78.8037C93.6023 78.8299 93.5892 78.856 93.5762 78.869C93.5631 78.8821 93.5631 78.9082 93.5631 78.9213C93.5631 78.9343 93.5501 78.9474 93.524 78.9343C93.5109 78.9343 93.4979 78.9604 93.4979 79.0126C93.4979 79.0649 93.4979 79.0779 93.4456 79.0779C93.4195 79.0649 93.4195 79.0779 93.4326 79.091C93.4587 79.104 93.4587 79.1301 93.4456 79.1432C93.4326 79.1563 93.4195 79.1954 93.4195 79.1954C93.4195 79.2085 93.4195 79.2476 93.3934 79.2999C93.3804 79.3521 93.3673 79.4174 93.3542 79.4565C93.3542 79.4957 93.3412 79.5349 93.3281 79.561C93.2629 79.7438 93.2629 79.7686 93.601 79.7176C94.2381 79.6524 95.891 78.7541 96.2826 78.5596C96.5424 78.4291 96.6208 78.4682 96.4262 78.651C96.361 78.7163 96.3218 78.7424 96.3348 78.7163C96.3479 78.6902 96.3218 78.7163 96.2826 78.7554C96.2173 78.8338 94.8765 79.6798 94.7982 79.6798C94.7851 79.6928 94.759 79.7059 94.759 79.732C94.746 79.7451 94.7068 79.7712 94.6807 79.7712C94.6546 79.7712 94.6285 79.7842 94.6285 79.7973C94.6285 79.8234 94.4979 79.8756 94.4588 79.8626C94.4501 79.8539 94.4501 79.8539 94.4588 79.8626C94.4718 79.8756 94.1076 80.0453 93.8739 80.1093C93.665 80.1615 93.4704 80.1485 93.3268 80.0832C93.1584 80.031 92.8059 79.7842 92.7406 79.6928C92.6231 79.5101 92.6231 79.2894 92.7537 78.9252L92.819 78.7424L92.7276 78.7685C92.6362 78.7946 92.2067 79.0152 92.0644 79.1066C92.0121 79.1327 91.8829 79.1719 91.7523 79.2372C91.6348 79.2894 91.4142 79.4069 91.2706 79.497C91.14 79.5753 90.9455 79.6798 90.8541 79.7176C90.7627 79.7699 90.6322 79.8482 90.5812 79.8743C90.3214 80.044 89.4885 80.4475 89.1229 80.6159C89.0707 80.6289 89.0315 80.655 89.0054 80.6681C88.9663 80.6811 88.8096 80.7464 88.6542 80.7986L88.6568 80.796ZM88.5929 80.1837C88.9832 80.014 89.0485 79.9748 89.4258 79.7803C89.6347 79.6759 89.9598 79.4944 90.1282 79.4161C90.2849 79.3247 90.6622 79.1432 90.9611 78.9865C91.2601 78.8168 91.5474 78.6614 91.6113 78.6353C91.6766 78.5962 91.8333 78.5178 91.9756 78.4395C92.1749 78.3438 92.2789 78.2702 92.2876 78.2189C92.3007 78.1797 92.3137 78.1405 92.3398 78.1014L92.379 78.023L92.3137 78.0491C92.2876 78.0622 92.2484 78.0752 92.2484 78.0622C92.2484 78.0491 92.2354 78.0622 92.2093 78.0752C92.1832 78.1014 92.1701 78.1014 92.1701 78.1014C92.1701 78.0883 92.1179 78.1014 92.0657 78.1275C92.0004 78.1536 91.922 78.1666 91.909 78.1797C91.8698 78.1797 91.8307 78.1797 91.8176 78.1927C91.8045 78.1927 91.7654 78.2189 91.7262 78.2319C91.7001 78.258 91.6609 78.2711 91.6479 78.2711C91.6348 78.2711 91.5826 78.2841 91.5304 78.3102C91.5043 78.3102 91.4782 78.3233 91.4651 78.3233C91.452 78.3233 91.439 78.3364 91.439 78.3494C91.439 78.3625 91.4129 78.3625 91.3737 78.3625C91.3476 78.3625 91.3084 78.3755 91.2954 78.3886C91.2823 78.4016 91.2432 78.4277 91.2301 78.4277C91.1779 78.4408 91.0995 78.48 90.8658 78.5844C90.7614 78.6366 90.6961 78.6627 90.7092 78.6497C90.7222 78.6105 90.7222 78.6236 90.5525 78.728C90.5003 78.7541 90.435 78.7803 90.4089 78.7933C90.3828 78.7933 90.3306 78.8194 90.2783 78.8586C90.2131 78.8847 90.1217 78.9369 90.0446 78.963C89.9794 78.9891 89.9141 79.0283 89.9141 79.0414C89.9141 79.0675 89.888 79.0675 89.8749 79.0675C89.8488 79.0675 89.8096 79.1066 89.7705 79.1328C89.7183 79.1458 89.6021 79.2111 89.4976 79.2894C89.3932 79.3416 89.2509 79.433 89.1856 79.4853C89.1203 79.5244 89.055 79.5636 89.042 79.5636C89.0289 79.5636 89.0159 79.5766 89.0028 79.6158C88.9897 79.6419 88.9506 79.6811 88.8984 79.6941C88.8723 79.7072 88.807 79.7464 88.7809 79.7855C88.7417 79.8116 88.6895 79.8639 88.6634 79.8769C88.5067 79.9944 88.2991 80.189 88.1947 80.2934L88.1294 80.3717L88.2991 80.3064C88.3644 80.2803 88.508 80.2281 88.585 80.189L88.5929 80.1837Z" fill="white"/>
<path d="M106.513 74.5359C106.487 74.5359 106.461 74.5359 106.487 74.562C106.513 74.6011 106.24 74.874 106.227 74.8218C106.201 74.8087 106.201 74.8218 106.201 74.874C106.201 74.9001 106.149 74.9523 106.123 74.9523C106.11 74.9523 106.097 74.9523 106.097 74.9654C106.11 75.0307 105.94 75.1482 105.876 75.1351C105.824 75.1264 105.815 75.1308 105.85 75.1482C105.902 75.1612 105.902 75.1873 105.798 75.2657C105.771 75.2918 105.732 75.344 105.706 75.344C105.693 75.3179 105.693 75.344 105.693 75.3701C105.706 75.3832 105.667 75.4485 105.459 75.643C105.355 75.7213 105.329 75.7605 105.329 75.7866C105.329 75.8258 105.16 75.9302 105.146 75.9041C105.12 75.9041 105.094 75.9041 105.12 75.9302C105.12 75.9563 104.989 76.113 104.821 76.2945C104.653 76.4642 104.522 76.6195 104.522 76.6457C104.522 76.6457 104.509 76.6718 104.457 76.6979C104.405 76.7501 104.249 76.9316 104.079 77.1274C103.936 77.3232 103.78 77.4786 103.754 77.5047C103.754 77.5047 103.689 77.5961 103.624 77.6483C103.585 77.7528 103.532 77.7789 103.506 77.7789C103.48 77.7528 103.467 77.7528 103.48 77.805C103.532 77.8572 103.402 77.9878 103.35 77.9486C103.324 77.9225 103.324 77.9486 103.324 77.9617C103.35 77.9878 103.324 78.053 103.258 78.1183C103.193 78.1705 103.154 78.2228 103.154 78.2358C103.167 78.2619 103.154 78.2881 103.102 78.3272C102.984 78.4708 103.987 78.1183 104.611 77.8977C105.093 77.728 105.847 77.4159 105.873 77.4159C105.899 77.4159 105.86 77.4812 105.834 77.5073C105.782 77.5334 105.756 77.5596 105.73 77.5596C105.704 77.5596 105.47 77.7032 105.444 77.7162C105.405 77.7423 105.158 77.8468 105.132 77.8468C105.119 77.8468 105.053 77.8468 104.963 77.9251C104.859 77.9643 104.377 78.198 104.351 78.198C104.338 78.198 103.714 78.4317 103.636 78.4578C103.583 78.4969 103.466 78.5361 103.402 78.5492C103.258 78.6014 103.233 78.6275 103.297 78.7319C103.324 78.8756 103.324 79.057 103.297 79.0831C103.258 79.1093 103.232 79.1354 103.258 79.1484C103.258 79.1615 103.258 79.1876 103.206 79.2398C103.18 79.2833 103.123 79.292 103.036 79.2659C102.984 79.2398 102.868 79.1484 102.814 79.0831L102.658 78.9917L102.566 79.057C102.527 79.1354 102.488 79.1876 102.514 79.1876C102.514 79.1876 102.488 79.2137 102.462 79.2398C102.436 79.2659 102.41 79.3051 102.436 79.3051C102.436 79.3051 102.41 79.3181 102.37 79.3704C102.331 79.4095 102.305 79.4356 102.331 79.4356C102.344 79.4095 102.344 79.4356 102.305 79.514C102.109 79.826 102.045 79.9566 102.045 79.9827C102.045 80.0088 102.019 80.0349 101.993 80.0349C101.98 80.0349 101.954 80.048 101.954 80.0871C101.954 80.1132 101.928 80.1916 101.915 80.2438C101.863 80.3874 101.836 80.5819 101.889 80.6994V80.8039L101.81 80.7125C101.758 80.6603 101.732 80.595 101.732 80.4005C101.732 80.1929 101.758 80.1145 101.889 79.8273C102.149 79.1641 102.201 79.0466 102.07 79.151C102.044 79.1641 101.992 79.1641 101.992 79.1641C101.953 79.1902 101.575 79.3717 101.484 79.4108C101.445 79.4369 101.406 79.437 101.38 79.3978C101.353 79.3717 101.34 79.3717 101.34 79.4108C101.34 79.4761 100.481 79.8534 100.403 79.8273C100.377 79.8143 100.364 79.8273 100.351 79.8534C100.351 79.9056 100.325 79.9056 100.299 79.9056C100.272 79.8795 100.259 79.9056 100.259 79.9318H100.207C100.168 79.9318 100.116 79.9579 100.09 79.984C100.09 80.0101 100.064 80.0362 100.064 80.0101C100.037 79.984 100.011 80.0101 100.011 80.0362C100.011 80.0493 99.9852 80.0754 99.9591 80.0754C99.9199 80.0754 99.8546 80.0884 99.7894 80.1145C99.7502 80.1406 99.6209 80.1929 99.5687 80.219C99.4773 80.2451 99.3468 80.3234 99.2697 80.3495C99.1783 80.3887 99.1 80.4279 99.087 80.4279C99.0347 80.4279 99.0086 80.454 98.9825 80.454C98.9825 80.4931 98.2671 80.7138 98.0712 80.766C97.5373 80.9096 97.0424 80.9357 96.6403 80.8313C96.3544 80.766 96.1586 80.6877 95.8335 80.5193C95.2081 80.1158 95.0136 79.7908 95.2604 79.4396C95.3517 79.2698 95.8074 78.8534 95.8727 78.8534H95.9379C95.9379 78.775 96.7839 78.3847 97.2788 78.1771C97.4733 78.0726 98.0464 77.9042 98.2945 77.8389C98.3728 77.8128 98.5164 77.7606 98.5935 77.7606C98.6848 77.7345 99.0622 77.6431 99.4395 77.5778C99.9865 77.4473 100.207 77.4342 100.689 77.4342C101.6 77.4081 102.043 77.5125 102.525 77.8768C102.642 77.9551 102.745 78.0204 102.745 78.0204C102.745 77.9943 102.758 77.929 102.81 77.8768C102.85 77.8115 102.915 77.681 102.967 77.6039C102.993 77.5125 103.149 77.305 103.253 77.0961C103.397 76.8754 103.5 76.7057 103.5 76.6796C103.5 76.6796 103.733 76.3284 103.747 76.3284C103.773 76.3023 103.786 76.3023 103.786 76.2762C103.786 76.2501 104.346 75.4955 104.475 75.3257C104.54 75.2735 104.658 75.1299 104.813 74.9745C104.931 74.8179 105.23 74.4928 105.476 74.2199C105.736 73.9601 106.01 73.6337 106.102 73.5436C106.271 73.3609 107.637 71.9038 107.937 71.631C108.003 71.5527 108.106 71.4103 108.159 71.3712L108.264 71.2667L108.159 71.1623C108.107 71.097 108.055 71.0187 108.055 70.9926C108.055 70.9404 108.302 70.7328 109.095 70.1335C109.342 69.9377 109.368 69.9377 109.551 70.003C109.629 70.0421 109.811 70.1727 109.954 70.315C110.136 70.5108 110.201 70.6009 110.201 70.6531C110.175 70.7445 110.084 70.8868 109.954 70.9913C109.915 71.0435 109.837 71.1218 109.811 71.161C109.785 71.2132 109.654 71.3568 109.525 71.473C109.394 71.6036 109.291 71.7589 109.291 71.7851C109.265 71.8242 109.252 71.8503 109.2 71.8242C109.161 71.8242 109.148 71.8242 109.161 71.8242C109.2 71.8634 109.03 72.071 108.952 72.071C108.939 72.071 108.913 72.071 108.939 72.0971C108.939 72.1232 108.939 72.1362 108.913 72.1362C108.887 72.1362 108.873 72.1449 108.873 72.1624C108.9 72.1624 108.847 72.2276 108.782 72.2929C108.717 72.3451 108.614 72.4496 108.561 72.5397C108.483 72.6049 108.457 72.6441 108.457 72.6311C108.457 72.6049 108.431 72.6311 108.418 72.6702C108.379 72.7224 108.326 72.7747 108.3 72.7485C108.274 72.7224 108.261 72.7224 108.274 72.7485C108.326 72.8008 108.091 73.0084 108.052 72.9953C108.026 72.9692 108.026 72.9953 108.026 73.0084C108.052 73.0345 108.026 73.0606 108 73.0867C107.974 73.0867 107.948 73.1128 107.948 73.1128C107.974 73.1389 107.948 73.1911 107.883 73.2303C107.778 73.2956 107.739 73.3609 107.752 73.387C107.778 73.4131 107.752 73.4131 107.713 73.4131C107.678 73.3957 107.661 73.3957 107.661 73.4131C107.687 73.4261 107.661 73.4653 107.634 73.4914C107.582 73.5306 107.556 73.5436 107.582 73.5698C107.582 73.5785 107.565 73.5828 107.53 73.5828C107.491 73.5697 107.478 73.5697 107.491 73.5828C107.504 73.635 106.865 74.246 106.828 74.246C106.802 74.246 106.802 74.2721 106.802 74.2721C106.841 74.3113 106.555 74.545 106.503 74.545L106.513 74.5359ZM102.518 78.2841L102.335 78.2319C102.088 78.1666 101.255 78.1405 100.904 78.2058C100.761 78.2189 100.566 78.258 100.488 78.258C100.306 78.2841 99.6288 78.4147 99.5504 78.4539C99.5113 78.4539 99.446 78.4669 99.4068 78.4669C99.1862 78.5191 98.2749 78.7659 98.2227 78.8442C98.2096 78.8442 98.1182 78.8442 98.0791 78.8703C98.0268 78.8964 97.9106 78.9487 97.8323 78.9617C97.7409 79.0009 97.6756 79.0139 97.6495 79.0139C97.6495 79.0139 97.5712 79.0401 97.4929 79.0792C97.4276 79.1445 97.3362 79.1837 97.284 79.1837C97.1795 79.2098 96.8153 79.4043 96.8414 79.4565C96.8414 79.4652 96.8327 79.4696 96.8153 79.4696C96.7892 79.4696 96.3727 79.7163 96.2944 79.8208C96.203 79.9252 96.1246 80.0414 96.1246 80.0806C96.1246 80.0806 96.0985 80.1328 96.0724 80.1589C96.0463 80.2111 96.0463 80.2242 96.0985 80.2373C96.1899 80.2895 97.049 80.2242 97.3088 80.185C98.2723 79.9761 100.355 79.3651 101.955 78.8442C102.372 78.7006 102.385 78.6876 102.437 78.5714C102.437 78.5322 102.437 78.4669 102.463 78.3886L102.515 78.2841H102.518Z" fill="white"/>
</g>
<defs>
<clipPath id="clip0_6_3">
<rect width="121.412" height="86" fill="white"/>
</clipPath>
</defs>
</svg>
